<svg width="400" height="400" viewBox="0 0 400 400" fill="none" xmlns="http://www.w3.org/2000/svg">
<path d="M210.307 181.594L210.484 181.038C209.775 180.298 201.263 177.688 199.401 176.912C186.088 171.364 170.6 160.352 162.567 148.183C151.81 131.887 150.193 110.346 151.147 91.3782C151.435 85.6518 151.885 79.6102 153.043 73.9874C153.242 73.0187 153.337 72.1843 154.24 71.6345C158.599 68.9793 187.971 68.9983 194.72 69.511C200.076 69.9178 205.332 70.6582 210.534 72.0339C224.164 75.6381 232.386 80.4933 242.031 90.7592C245.091 94.0164 248.353 97.8524 250.598 101.715C258.336 91.1953 265.309 82.6182 277.415 76.8962C283.692 73.9289 293.123 71.0347 299.906 70.2181C310.449 68.9487 338.93 68.5635 347.813 71.6666C350.473 80.0291 350.396 109.329 349.223 118.542C348.477 124.271 347.119 129.904 345.172 135.343C342.645 142.336 338.915 149.211 333.896 154.537C322.689 166.429 308.596 175.615 292.855 180.138C292.081 180.36 291.08 180.686 290.354 181.051C294.922 185.718 299.477 192.108 301.17 198.422C303.843 208.395 299.02 221.587 292.055 229.018C278.33 224.809 260.699 217.179 250.685 206.619C244.694 214.191 226.904 222.863 217.901 226.085C215.312 227.011 211.822 228.506 209.096 228.918C198.124 214.436 195.073 199.318 207.681 184.684C208.483 183.755 209.411 182.381 210.307 181.594Z" fill="#FEAC18"/>
<path d="M255.516 163.766C256.909 163.521 258.331 163.501 259.73 163.711C270.788 164.96 282.137 172.594 289.676 180.455L290.354 181.051C294.922 185.718 299.477 192.108 301.17 198.422C303.843 208.395 299.02 221.587 292.055 229.018C278.33 224.809 260.699 217.179 250.685 206.619C244.694 214.191 226.904 222.863 217.901 226.085C215.312 227.011 211.822 228.506 209.096 228.918C198.124 214.436 195.073 199.318 207.681 184.684C208.483 183.755 209.411 182.381 210.307 181.594L210.475 181.687C210.969 181.254 211.262 180.953 211.711 180.473C220.091 171.435 229.701 166.066 241.69 163.625L241.906 163.771C245.411 163.546 247.287 163.923 250.713 164.228C251.718 164.318 254.062 163.737 255.516 163.766Z" fill="#F75D00"/>
<path d="M255.516 163.766C256.909 163.521 258.331 163.501 259.73 163.711C270.788 164.96 282.137 172.594 289.676 180.455C287.446 182.404 274.966 182.347 271.706 182.13C268.261 181.924 264.859 181.261 261.587 180.16C261.528 180.788 261.445 182.04 261.305 182.604C261.25 181.655 261.372 180.341 261.335 179.311C261.155 174.208 259.798 171.667 256.726 167.847C251.702 163.245 249.55 163.797 244.655 167.881C239.804 173.417 240.344 176.032 240.102 182.606C239.928 181.715 240.066 181.1 239.628 180.274C238.007 180.681 234.645 181.525 233.184 181.818C229.956 182.463 213.57 182.595 211.711 180.473C220.091 171.435 229.701 166.066 241.69 163.625L241.906 163.771C245.411 163.546 247.286 163.923 250.713 164.228C251.718 164.318 254.061 163.737 255.516 163.766Z" fill="#F63700"/>
<path d="M244.655 167.881C249.55 163.797 251.702 163.245 256.726 167.847C259.798 171.667 261.155 174.208 261.335 179.311C261.372 180.341 261.25 181.655 261.305 182.604C260.341 192.004 256.548 199.467 250.622 206.648C249.538 205.172 248.235 203.698 247.261 202.189C243.412 196.226 240.644 189.717 240.102 182.606C240.344 176.032 239.804 173.417 244.655 167.881Z" fill="#EA1700"/>
<path d="M250.692 102.15C252.507 104.474 254.742 108.525 256.099 111.17C262.171 123.004 265.738 136.229 264.076 149.591C263.668 153.001 262.816 156.343 261.542 159.532C261.132 160.56 259.971 162.959 259.73 163.711C258.331 163.501 256.909 163.521 255.516 163.766C254.062 163.737 251.718 164.318 250.713 164.228C247.287 163.923 245.411 163.546 241.906 163.771L241.69 163.624C235.103 150.972 235.882 137.304 239.979 123.926C241.624 118.551 247.082 106.268 250.692 102.15Z" fill="#F75D00"/>
<path d="M78.4748 258.136C82.6925 257.736 90.6372 258.22 94.9334 259.379C117.633 265.5 113.878 288.21 114.101 306.249C113.889 312.011 114.504 318.485 113.937 324.181C113.188 331.713 100.344 332.429 98.1876 325.193C97.956 324.416 97.9043 322.782 97.542 322.453C96.9615 322.658 95.9834 323.495 95.5004 323.905C89.64 328.995 84.0504 330.644 76.3959 330.751C67.6464 330.873 60.1922 329.511 54.4197 322.147C53.9331 321.507 53.4786 320.842 53.0579 320.156C50.0665 315.195 49.2711 308.639 50.6663 303.092C54.8225 286.571 75.2193 285.082 89.1402 286.842C91.9486 287.197 95.3631 288.36 98.0889 289.091C98.7549 283.872 97.185 278.709 92.8268 275.496C91.26 274.338 89.4865 273.49 87.6016 272.997C83.9066 272.056 75.9327 272.275 72.0388 272.979C69.125 273.795 67.1059 274.375 64.0943 275.01C57.5509 276.389 53.4142 269.71 57.0518 264.46C58.3984 262.517 62.6001 261.295 64.9802 260.575C69.3699 259.246 73.846 258.573 78.4748 258.136ZM84.542 318.71C88.3982 318.285 92.7746 316.225 95.2046 313.126C98.9843 308.305 98.0904 304.623 98.6912 299.236C92.2277 297.523 86.5551 296.352 79.7657 296.885C72.9785 297.5 65.3094 301.325 65.9815 309.246C66.2161 311.96 67.5563 314.46 69.688 316.157C73.2578 319.048 78.9783 319.459 83.3636 318.918C83.7594 318.867 84.1526 318.797 84.542 318.71Z" fill="#646465"/>
<path d="M221.997 257.924C230.123 257.747 239.222 259.539 246.258 263.875C248.473 265.24 249.04 267.327 249.867 269.637C247.836 280.165 238.45 274.982 232.362 272.545C229.709 271.485 225.831 270.75 223.073 270.598C219.927 270.422 217.14 271.436 215.072 273.818C214.153 274.789 212.875 275.937 213.033 277.534C213.746 284.762 229.334 287.205 234.993 289.86C239.012 291.493 242.865 293.204 245.997 296.354C253.159 303.556 252.273 317.109 245.024 324.014C237.74 330.952 229.979 330.774 220.696 330.662C212.832 330.183 203.821 327.107 197.407 322.546C194.111 320.203 193.287 315.505 196.25 312.473C201.71 306.886 208.449 314.162 214.1 315.925C219.011 317.456 222.617 317.954 227.746 317.774C231.838 317.882 236.655 314.085 235.873 309.981C234.45 302.521 220.135 301.221 214.257 298.539C210.54 296.843 207.27 295.963 204.141 293.075C200.701 290.08 198.506 286.502 198.345 281.93C198.113 275.284 198.021 271.217 202.705 266.024C207.848 260.323 214.63 258.371 221.997 257.924Z" fill="#646465"/>
<path d="M139.516 231.257C143.13 231.538 147.071 233.644 147.485 237.665C147.877 241.463 147.676 245.733 147.675 249.589L147.671 271.979L147.677 305.121C147.682 310.966 147.704 316.798 147.622 322.641C147.551 327.787 144.054 329.831 139.379 330.368C136.438 329.939 132.068 328.257 131.869 324.882C130.787 306.578 131.296 287.564 131.481 269.29L131.588 248.539C131.591 244.837 131.45 240.934 131.687 237.263C131.938 233.394 136.28 231.653 139.516 231.257Z" fill="#646465"/>
<path d="M172.488 258.301C176.612 257.885 181.169 259.638 182.15 264.331C182.718 267.05 182.394 271.46 182.391 274.37L182.38 290.982L182.402 311.153C182.408 315.022 182.499 319.025 182.28 322.881C182.196 324.373 182.082 325.448 181.133 326.629C179.874 328.196 177.932 329.831 175.9 330.126C172.143 330.855 167.37 329.062 166.392 324.939C165.668 321.887 165.764 317.19 165.723 313.951C165.667 308.031 165.645 302.11 165.655 296.19L165.741 276.506C165.785 272.701 165.822 268.757 166.131 264.97C166.42 261.431 169.218 259.182 172.488 258.301Z" fill="#646465"/>
<path d="M173.098 232.106C177.709 231.651 182.309 233.91 183.32 238.714C183.77 240.875 183.343 243.126 182.132 244.972C180.398 247.628 178.133 248.275 175.253 248.907C173.038 249.187 170.27 248.563 168.346 247.365C164.572 245.014 163.358 239.609 165.926 235.925C167.69 233.393 170.173 232.627 173.098 232.106Z" fill="#646465"/>
</svg>
