<svg width="400" height="100" viewBox="0 0 400 100" fill="none" xmlns="http://www.w3.org/2000/svg">
<path d="M218.899 41.5836C223.388 41.1949 226.068 42.5034 229.101 45.7065L229.105 42.3527C231.151 42.404 233.259 42.3638 235.311 42.3494V71.2264C233.833 71.2264 230.644 71.2264 229.111 71.2264L229.111 67.9094L227.442 69.5619C224.391 71.924 221.539 72.2489 217.852 71.7812C206.468 70.3367 202.519 55.0969 209.306 46.6989C211.708 43.7601 215.161 41.9192 218.899 41.5836ZM222.083 65.7197C226.921 65.0774 230.336 60.557 229.706 55.6226C229.077 50.6879 224.644 47.2074 219.803 47.8476C214.96 48.4881 211.546 53.0093 212.175 57.9453C212.803 62.8813 217.24 66.3623 222.083 65.7197Z" fill="#4F2D82"/>
<path d="M66.8978 41.5784C67.3051 41.5407 67.7137 41.5185 68.1228 41.512C72.1657 41.4811 74.4059 42.936 77.1171 45.6582L77.1191 42.3411C79.1537 42.4131 81.2532 42.3688 83.2936 42.3518L83.3216 71.2375C81.304 71.2375 79.1647 71.2375 77.1216 71.2375L77.1131 67.9844C76.2853 68.8012 75.734 69.3189 74.8139 70.0543C73.4927 71.1793 71.6856 71.6264 70.0158 71.8402C61.868 72.8832 55.0777 67.2769 54.1572 58.9409C53.1937 50.2133 57.9325 42.649 66.8978 41.5784ZM70.2374 65.9598C72.8599 65.2966 74.671 64.3559 76.1257 61.8921C77.4563 59.5928 77.8416 56.8508 77.1975 54.2633C76.114 49.8412 72.5 47.1795 68.0393 47.6078C56.5515 49.6381 58.6813 67.1206 70.2374 65.9598Z" fill="#4F2D82"/>
<path d="M313.148 42.5397C318.553 41.4569 322.912 43.9752 326.301 48.062L326.307 42.8708L329.68 42.8641L329.706 71.2796C328.55 71.2796 327.402 71.2796 326.294 71.2796L326.303 65.9139C325.878 66.5802 325.084 67.4589 324.552 68.0823C323.22 69.6868 320.132 71.046 318.134 71.4154C299.003 74.9496 294.583 45.8083 313.148 42.5397ZM316.995 68.1994C322.998 67.4479 327.289 61.9102 326.617 55.7826C325.943 49.6548 320.559 45.2208 314.541 45.8403C310.591 46.247 307.159 48.7863 305.555 52.4893C303.951 56.1925 304.422 60.4887 306.789 63.7391C309.155 66.9894 313.052 68.6926 316.995 68.1994Z" fill="#4F2D82"/>
<path d="M156.411 41.588C157.333 41.4456 158.573 41.5102 159.503 41.6241C168.212 42.691 172.006 51.0672 171.057 59.1744C164.222 59.0739 156.912 59.1147 150.076 59.1894C151.666 64.4524 154.456 67.0538 160.283 66.2711C162.576 65.963 164.615 64.8253 166.529 63.5437C167.229 63.6616 169.371 67.0772 169.96 67.9037C166.864 70.4483 164.234 71.4592 160.33 71.8743C151.515 72.8112 144.524 67.9033 143.7 58.5258C142.947 49.963 147.392 42.3314 156.411 41.588ZM150.051 54.3527L157.603 54.3426L164.9 54.3385C163.856 50.1283 162.229 47.5209 157.66 47.2542C152.74 47.66 151.387 49.7006 150.051 54.3527Z" fill="#4F2D82"/>
<path d="M113.015 31.5946C115.076 31.6423 117.284 31.5929 119.356 31.5842C119.255 36.249 119.406 41.0041 119.299 45.7228C122.136 41.7511 127.061 40.7107 131.497 42.0294C140.003 44.5581 139.561 51.788 139.542 58.8432C139.511 62.9722 139.514 67.1014 139.549 71.2303L133.195 71.2288L133.202 58.195L133.204 57.8335C133.215 54.963 133.467 51.6748 131.29 49.4009C127.926 45.8859 120.765 47.8629 119.69 52.6733C119.065 55.4698 119.363 59.122 119.326 62.0686C119.288 65.0809 119.345 68.1933 119.357 71.2292L112.956 71.2223C113.192 66.909 113.037 61.5164 113.036 57.0891L113.015 31.5946Z" fill="#4F2D82"/>
<path d="M283.147 42.5382C286.918 41.7522 291.684 43.313 294.292 46.1513C297.527 49.6695 298.438 53.6379 298.368 58.2961C290.677 58.1667 282.663 58.2853 274.945 58.2847C275.15 60.0929 275.45 61.6063 276.318 63.2383C277.627 65.6609 279.826 67.4551 282.431 68.2266C285.061 69.0217 288.412 68.8129 290.84 67.4738C292.623 66.7681 293.714 65.8557 295.045 64.548C295.581 65.1821 296.159 65.8215 296.549 66.5548C296.631 68.8964 291.077 70.9565 289.048 71.3673C274.815 74.2494 266.795 59.6629 274.07 48.0178C275.979 44.9643 279.497 43.1331 283.147 42.5382ZM274.983 55.3208L285.463 55.3124L294.871 55.3171C293.933 49.9624 290.637 44.8309 284.607 45.4828C278.724 46.1575 276.013 49.5522 274.983 55.3208Z" fill="#4F2D82"/>
<path d="M189.204 41.5737C194.516 40.6018 200.779 44.7037 201.649 50.1914C202.149 53.3601 202.021 56.55 202.012 59.746L202.004 71.189C199.928 71.189 197.855 71.1869 195.756 71.1865C195.756 67.6158 196.125 55.0192 195.178 52.0034C194.685 50.4318 193.686 49.0083 192.224 48.2457C190.338 47.2617 188.106 47.5363 186.162 48.1765C185.346 48.5122 184.603 49.01 183.978 49.6409C181.231 52.4582 181.791 57.1928 181.801 60.8788L181.855 71.223C179.92 71.223 177.597 71.223 175.51 71.223L175.523 42.3451C177.583 42.4117 179.742 42.3628 181.81 42.3467L181.779 45.6143C183.971 43.0604 185.843 41.9622 189.204 41.5737Z" fill="#4F2D82"/>
<path d="M91.6811 31.6343L98.0195 31.639L98.0054 42.3523C101.59 42.4146 105.286 42.3716 108.879 42.3748C108.843 44.2762 108.873 46.2317 108.88 48.1379C105.345 48.0587 101.562 48.1275 98.0076 48.1266C98.0645 56.8163 95.016 70.8532 108.142 64.0548L109.278 66.1937L110.656 69.1178C104.751 72.9469 93.9939 74.1352 92.0938 64.8341C91.172 60.3215 91.6696 53.0161 91.6763 48.1279L86.0739 48.1309L86.0895 42.3556C87.9339 42.3847 89.8264 42.3625 91.6752 42.3629L91.6811 31.6343Z" fill="#4F2D82"/>
<path d="M44.7448 42.3337C44.8211 42.4309 44.9092 42.5741 44.9241 42.7004C46.6018 56.7552 37.4422 69.1835 23.767 71.5585C23.6922 71.4861 23.6133 71.3958 23.599 71.2873C21.9914 59.1015 29.2022 46.9152 40.8453 43.2649C42.135 42.8604 43.3944 42.5938 44.7448 42.3337Z" fill="#7A9A01"/>
<path d="M241.581 31.5981L245.164 31.5806C245.067 36.887 245.159 42.347 245.111 47.6828C248.868 41.3232 258.5 40.6873 263.662 45.6153C267.465 49.244 266.801 55.484 266.785 60.4224L266.774 71.2292L263.193 71.2261C263.223 65.4027 263.22 59.5792 263.179 53.7558C262.404 42.5156 246.812 43.7947 245.49 52.6222C244.764 57.4512 245.137 66.0694 245.162 71.2313L241.583 71.227C241.822 58.4155 241.667 44.4508 241.581 31.5981Z" fill="#4F2D82"/>
<path d="M370.172 31.5958L373.59 31.5828L373.577 47.6226C380.186 37.92 396.417 42.2546 395.309 54.8083C395.189 56.1806 395.307 58.2359 395.303 59.6706L395.301 71.2226L391.764 71.2288L391.77 53.7721C391.156 45.5004 381.413 43.1291 376.249 48.4218C375.066 49.6552 374.239 51.198 373.862 52.8801C373.364 55.0694 373.583 68.1496 373.592 71.2318L370.166 71.2314L370.172 31.5958Z" fill="#4F2D82"/>
<path d="M349.536 31.6223C350.671 31.648 351.844 31.6319 352.983 31.6323C352.937 35.3806 352.943 39.1294 353.001 42.8776L365.903 42.8683V46.0093L352.966 46.0148C352.947 50.2839 352.281 62.1026 353.87 65.3126C354.532 66.6507 355.615 67.7046 357.024 68.1736C359.395 68.9621 361.911 68.1709 364.039 67.0659L365.452 66.2154L367.048 68.8712C363.966 71.0673 362.607 71.5512 358.915 71.6347C351.655 71.799 349.477 66.9221 349.511 60.3744C349.538 55.6091 349.525 50.7701 349.54 46.0019L343.135 45.9976L343.155 42.8724L349.536 42.8763V31.6223Z" fill="#4F2D82"/>
<path d="M5.57963 39.8884C5.68269 39.8993 5.78548 39.9126 5.88793 39.9284C10.4989 40.6369 15.1329 43.7826 17.8292 47.5892C21.8672 53.2901 21.8605 58.2115 21.7094 64.911C21.6676 66.7631 21.8201 69.7102 21.5538 71.4476C20.9652 71.5672 20.823 71.5959 20.2401 71.4647C19.6866 70.8829 19.8829 63.3213 19.8814 61.9842C15.6694 60.7799 11.9556 58.2124 9.29993 54.6686C6.05387 50.2917 4.84389 45.3186 5.57963 39.8884Z" fill="#9BC620"/>
<path d="M336.473 31.589C337.606 31.6178 338.882 31.586 340.027 31.5828L340.016 71.2227C339.588 71.2227 337.039 71.2227 336.473 71.2227V31.589Z" fill="#4F2D82"/>
<path d="M22.4091 27.9929C22.5663 28.0973 22.6925 28.224 22.8251 28.3574C27.4926 33.0439 28.0667 41.072 24.5823 46.6278C23.9256 47.6751 23.3541 48.2899 22.4973 49.1518C16.8582 42.8587 16.6492 34.3259 22.4091 27.9929Z" fill="#9BC620"/>
<path d="M30.8921 38.6691C32.3328 38.1561 33.9108 38.9182 34.4337 40.3797C34.9568 41.8412 34.2312 43.4601 32.8047 44.0133C31.8645 44.3782 30.8043 44.1987 30.03 43.5437C29.2558 42.8886 28.8875 41.8594 29.0661 40.85C29.2445 39.8406 29.9422 39.0073 30.8921 38.6691Z" fill="#7A9A01"/>
</svg>
