<svg width="400" height="100" viewBox="0 0 400 100" fill="none" xmlns="http://www.w3.org/2000/svg">
<g clip-path="url(#clip0_12_248)">
<g clip-path="url(#clip1_12_248)">
<mask id="mask0_12_248" style="mask-type:luminance" maskUnits="userSpaceOnUse" x="0" y="2" width="80" height="80">
<path d="M79.2863 41.9238C79.2863 20.0295 61.5375 2.28064 39.6432 2.28064C17.7488 2.28064 0 20.0295 0 41.9238C0 63.8181 17.7488 81.567 39.6432 81.567C61.5375 81.567 79.2863 63.8181 79.2863 41.9238Z" fill="white"/>
</mask>
<g mask="url(#mask0_12_248)">
<path d="M52.526 5.25368C52.526 12.3693 46.7577 18.1377 39.642 18.1377C32.5262 18.1377 26.7578 12.3693 26.7578 5.25368C26.7578 -1.86197 32.5262 -7.63037 39.642 -7.63037C46.7577 -7.63037 52.526 -1.86197 52.526 5.25368Z" fill="#4865FF"/>
<path d="M52.526 78.5938C52.526 85.7095 46.7577 91.4778 39.642 91.4778C32.5262 91.4778 26.7578 85.7095 26.7578 78.5938C26.7578 71.4781 32.5262 65.7095 39.642 65.7095C46.7577 65.7095 52.526 71.4781 52.526 78.5938Z" fill="#4865FF"/>
<path d="M89.1957 41.9235C89.1957 49.0392 83.4274 54.8075 76.3117 54.8075C69.1961 54.8075 63.4277 49.0392 63.4277 41.9235C63.4277 34.8079 69.1961 29.0396 76.3117 29.0396C83.4274 29.0396 89.1957 34.8079 89.1957 41.9235Z" fill="#4865FF"/>
<path d="M15.856 41.9239C15.856 49.0396 10.0876 54.8079 2.97192 54.8079C-4.14374 54.8079 -9.91211 49.0396 -9.91211 41.9239C-9.91211 34.8082 -4.14374 29.0398 2.97192 29.0398C10.0876 29.0398 15.856 34.8082 15.856 41.9239Z" fill="#4865FF"/>
<path d="M78.4569 67.8536C78.4569 74.9692 72.6886 80.7376 65.5729 80.7376C58.4573 80.7376 52.6886 74.9692 52.6886 67.8536C52.6886 60.7379 58.4573 54.9692 65.5729 54.9692C72.6886 54.9692 78.4569 60.7379 78.4569 67.8536Z" fill="#4865FF"/>
<path d="M26.5982 15.9944C26.5982 23.1101 20.8298 28.8785 13.7141 28.8785C6.59847 28.8785 0.830078 23.1101 0.830078 15.9944C0.830078 8.87875 6.59847 3.11035 13.7141 3.11035C20.8298 3.11035 26.5982 8.87875 26.5982 15.9944Z" fill="#4865FF"/>
<path d="M78.4569 15.9944C78.4569 23.1101 72.6886 28.8785 65.5729 28.8785C58.4573 28.8785 52.6886 23.1101 52.6886 15.9944C52.6886 8.87875 58.4573 3.11035 65.5729 3.11035C72.6886 3.11035 78.4569 8.87875 78.4569 15.9944Z" fill="#4865FF"/>
<path d="M26.5982 67.8536C26.5982 74.9692 20.8298 80.7376 13.7141 80.7376C6.59847 80.7376 0.830078 74.9692 0.830078 67.8536C0.830078 60.7379 6.59847 54.9692 13.7141 54.9692C20.8298 54.9692 26.5982 60.7379 26.5982 67.8536Z" fill="#4865FF"/>
</g>
</g>
<g clip-path="url(#clip2_12_248)">
<path fill-rule="evenodd" clip-rule="evenodd" d="M167.106 74.2168C161.624 73.6241 159.232 71.7469 156.541 65.8195L130.23 8.12585H128.635L103.22 65.8195C100.629 71.7469 98.2369 73.6241 93.1539 74.2168V75.5997H111.791V74.2168C104.914 73.6241 103.619 71.7469 106.21 65.8195L111.293 54.1622H139.199L144.382 65.8195C147.073 71.7469 145.877 73.6241 139.199 74.2168V75.5997H167.106V74.2168ZM138.003 51.3961H112.489L125.047 22.3517L138.003 51.3961ZM399.853 69.9691L399.056 69.3764C397.661 70.5618 395.966 71.9451 392.677 71.9451C387.594 71.9451 384.903 68.2898 384.903 62.9551V28.6748H399.554V25.9087H384.903V14.1526H383.508L369.256 27.2917V28.6748H374.737V63.3503C374.737 72.0438 379.621 77.0823 387.295 77.0823C394.571 77.0823 398.259 72.8343 399.853 69.9691ZM325.706 65.7201C328.696 72.2402 336.869 76.9822 346.536 76.9822C357.599 76.9822 365.672 70.5609 365.573 61.176C365.355 50.8403 356.497 47.8965 348.479 45.2321C341.783 43.0068 335.673 40.9759 335.673 34.9963C335.673 30.3531 339.46 27.1919 344.942 27.1919C350.224 27.1919 354.908 31.5386 356.902 37.96L364.476 34.3048C362.084 28.0809 354.51 24.4257 345.938 24.4257C334.776 24.4257 327.5 30.5507 327.6 39.2442C327.705 48.9276 335.892 51.6423 343.642 54.2126C350.6 56.5199 357.206 58.7107 357.3 65.7201C357.3 70.8574 353.114 74.2162 347.234 74.2162C340.955 74.2162 335.474 69.178 333.879 61.6696L325.706 65.7201ZM321.705 71.0558L323.798 71.1546V72.5378L307.752 77.082H306.356V65.8199C301.074 72.5378 295.892 77.082 288.815 77.082C279.646 77.082 274.663 71.2533 274.663 61.5719V35.5902C274.663 34.4231 274.459 33.4708 274.041 32.7082L274.025 32.6912C273.061 31.6484 271.398 29.849 267.439 30.8304C263.408 31.8297 260.189 31.2377 259.237 30.8304C262.866 33.7783 263.911 36.5709 263.911 41.7141C263.911 51.3955 255.638 58.8048 243.18 58.8048C239.393 58.8048 235.605 58.0146 232.317 56.434C230.722 57.9156 229.626 59.8915 229.626 61.6696C229.626 63.7442 232.117 66.6094 236.801 66.9056L252.648 67.9922C262.017 68.684 268.395 72.5368 268.395 80.5388C268.395 90.2202 257.034 96.5429 241.386 96.5429C227.832 96.5429 219.16 91.7022 219.16 84.9843C219.16 78.4642 224.244 74.9076 229.326 73.6235C225.539 71.7463 223.944 68.7827 223.944 65.9176C223.944 62.0648 226.536 58.2121 231.121 55.8413C226.037 52.9761 222.45 48.2342 222.45 41.7141C222.45 31.835 230.622 24.4257 243.18 24.4257C246.469 24.4257 249.413 25.0546 252.15 25.9076C252.639 26.06 253.194 26.3265 253.848 26.6404C256.554 27.94 260.954 30.0526 269.392 28.2519L283.334 24.3279H284.729V60.9792C284.729 66.8078 288.018 70.3644 293.3 70.3644C297.985 70.3644 301.772 68.3885 306.356 63.3503V35.5902C306.356 32.2312 304.662 30.6505 300.974 30.2554H298.882V28.8723L315.028 24.3279H316.423V65.8199C316.423 69.3764 318.316 70.7596 321.705 71.0558ZM242.482 27.2906C236.901 27.2906 233.014 32.5265 233.014 40.0347C233.014 49.4196 237.499 55.94 243.878 55.94C249.459 55.94 253.346 50.8028 253.346 43.196C253.346 34.0084 248.961 27.2906 242.482 27.2906ZM244.775 93.9743C254.243 93.9743 261.818 90.1215 261.818 84.4903C261.818 80.6375 259.127 77.4762 251.054 76.686L236.801 75.5003C234.609 75.3028 232.715 74.9076 231.121 74.4136C229.626 75.8955 227.433 78.1676 227.433 81.5268C227.433 89.331 235.007 93.9743 244.775 93.9743ZM216.755 71.0558L218.848 71.1546V72.5378L202.802 77.082H201.406V65.8199C196.124 72.5378 190.941 77.082 183.865 77.082C174.696 77.082 169.713 71.2533 169.713 61.5719V35.5902C169.713 32.2312 168.019 30.6505 164.431 30.2554H162.238V28.8723L178.384 24.3279H179.779V60.9792C179.779 66.8078 183.068 70.3644 188.35 70.3644C193.034 70.3644 196.822 68.3885 201.406 63.3503V35.5902C201.406 32.2312 199.712 30.6505 196.025 30.2554H193.932V28.8723L210.077 24.3279H211.472V65.8199C211.472 69.3764 213.366 70.7596 216.755 71.0558Z" fill="black"/>
</g>
</g>
<defs>
<clipPath id="clip0_12_248">
<rect width="400" height="100" fill="white"/>
</clipPath>
<clipPath id="clip1_12_248">
<rect width="80" height="80" fill="white" transform="translate(0 2.28064)"/>
</clipPath>
<clipPath id="clip2_12_248">
<rect width="308.772" height="95.4386" fill="white" transform="translate(91.228 2.28064)"/>
</clipPath>
</defs>
</svg>
