<svg width="400" height="100" viewBox="0 0 400 100" fill="none" xmlns="http://www.w3.org/2000/svg">
<g clip-path="url(#clip0_14_587)">
<path fill-rule="evenodd" clip-rule="evenodd" d="M59.7705 48.6545H21.515V33.2653H59.7705V48.6545ZM65.7403 24.749H15.5386V75.0716H52.5923V90.5598H15.5386V90.6392H0V90.5598V75.0716V24.749V9.35974H15.5386H65.7403H81.2789V24.749V61.9236H65.7403V24.749ZM128.547 55.187C127.461 54.5581 125.584 54.2415 122.916 54.2415H118.744V63.5166H122.744C125.318 63.5166 127.198 63.1968 128.391 62.5572C129.581 61.9175 130.177 60.7455 130.177 59.039C130.177 57.1013 129.634 55.8174 128.547 55.187ZM126.728 39.0928C125.602 38.5329 123.762 38.2519 121.205 38.2519H118.744V46.8065H121.034C123.647 46.8065 125.532 46.5263 126.686 45.9656C127.841 45.4062 128.418 44.2844 128.418 42.6015C128.418 40.8227 127.854 39.6535 126.728 39.0928ZM135.628 69.9412C134.457 70.5753 133.103 71.0454 131.566 71.3513C130.03 71.6595 128.435 71.8556 126.783 71.9419C125.133 72.0283 122.846 72.0703 119.928 72.0703H108.031V29.9372H120.814C123.019 29.9372 124.795 29.9657 126.139 30.0236C127.484 30.081 128.76 30.2211 129.969 30.441C131.178 30.6619 132.272 30.9831 133.251 31.4052C135.151 32.2124 136.619 33.3975 137.655 34.9615C138.693 36.5253 139.211 38.3631 139.211 40.4744C139.211 42.0679 138.946 43.4401 138.417 44.592C137.886 45.7434 137.049 46.7112 135.906 47.4989C134.762 48.2857 133.303 48.9188 131.534 49.3988C133.499 49.5333 135.215 50.0558 136.679 50.9662C138.143 51.879 139.25 53.1148 140.002 54.6781C140.754 56.2423 141.13 58.0304 141.13 60.0452C141.13 62.2886 140.648 64.2683 139.69 65.9851C138.729 67.7024 137.375 69.0215 135.628 69.9412ZM166 53.8867C165.51 52.8128 164.81 51.991 163.898 51.4191C162.986 50.8494 161.905 50.5647 160.659 50.5647C159.411 50.5647 158.331 50.8494 157.419 51.4191C156.507 51.991 155.807 52.8128 155.317 53.8867C154.828 54.9606 154.583 56.2026 154.583 57.6149C154.583 59.026 154.828 60.2693 155.317 61.3431C155.807 62.4171 156.511 63.2342 157.434 63.7944C158.355 64.3547 159.43 64.6348 160.659 64.6348C161.886 64.6348 162.961 64.3547 163.882 63.7944C164.805 63.2342 165.51 62.4171 166 61.3431C166.49 60.2693 166.735 59.026 166.735 57.6149C166.735 56.2026 166.49 54.9606 166 53.8867ZM168.905 71.1047C166.395 72.4938 163.65 73.19 160.669 73.19C157.65 73.19 154.895 72.4883 152.405 71.0898C149.914 69.6914 147.964 67.7912 146.548 65.3936C145.134 62.996 144.429 60.407 144.429 57.6243C144.429 54.8251 145.145 52.2222 146.577 49.8148C148.01 47.4079 149.972 45.5188 152.463 44.147C154.954 42.7753 157.69 42.0898 160.669 42.0898C162.92 42.0898 165.045 42.4829 167.045 43.2697C169.045 44.0569 170.79 45.1635 172.28 46.5931C173.771 48.0219 174.924 49.6845 175.742 51.5839C176.558 53.4829 176.968 55.4961 176.968 57.6243C176.968 60.4454 176.251 63.0488 174.818 65.4379C173.386 67.8262 171.415 69.7147 168.905 71.1047ZM202.03 52.2175C200.828 50.9032 199.206 50.2448 197.166 50.2448C195.124 50.2448 193.507 50.9032 192.316 52.2175C191.123 53.5341 190.527 55.3131 190.527 57.5589C190.527 59.8257 191.118 61.6116 192.301 62.9175C193.483 64.2226 195.104 64.8753 197.166 64.8753C199.243 64.8753 200.876 64.2226 202.058 62.9175C203.242 61.6116 203.832 59.8257 203.832 57.5589C203.832 55.3131 203.232 53.5341 202.03 52.2175ZM203.485 67.3499C200.898 71.2439 197.621 73.19 193.657 73.19C191.032 73.19 188.7 72.5606 186.659 71.3055C184.619 70.0486 183.049 68.237 181.947 65.8675C180.844 63.5002 180.293 60.7329 180.293 57.5669C180.293 54.5193 180.843 51.8146 181.945 49.4552C183.047 47.096 184.588 45.2788 186.572 44.0032C188.555 42.7276 190.801 42.0898 193.311 42.0898C195.726 42.0898 197.698 42.5115 199.23 43.3537C200.763 44.196 202.162 45.6883 203.427 47.8318C203.195 46.2019 203.079 44.4757 203.079 42.6529V27.4584H212.993V72.0703H203.485V67.3499ZM229.244 84.9429H217.808L225.989 67.6464L214.267 42.9695H225.641L229.703 53.4968C230.336 55.1123 230.795 56.6508 231.086 58.1122C231.431 56.3426 231.882 54.8051 232.436 53.4968L236.558 42.9695H247.527L229.244 84.9429ZM267.885 72.0703H256.373V39.8511H247V29.9372H277.315V39.8511H267.885V72.0703ZM299.065 51.2043C296.606 51.2043 294.701 51.9537 293.346 53.4548C291.996 54.9559 291.318 57.1396 291.318 60.0078V72.0703H281.086V42.9695H290.798V49.7961C291.426 48.2068 292.234 46.8476 293.214 45.7187C294.196 44.5891 295.315 43.7409 296.576 43.1763C297.831 42.6113 299.205 42.3294 300.691 42.3294C301.36 42.3294 302.311 42.4097 303.551 42.5694L302.58 51.809C301.265 51.4061 300.094 51.2043 299.065 51.2043ZM326.474 52.1544C325.26 50.8285 323.628 50.1645 321.569 50.1645C319.508 50.1645 317.878 50.8332 316.676 52.1694C315.476 53.5062 314.876 55.2991 314.876 57.5481C314.876 59.8187 315.471 61.6069 316.662 62.9143C317.854 64.2216 319.488 64.8753 321.569 64.8753C323.647 64.8753 325.286 64.2216 326.486 62.9143C327.688 61.6069 328.29 59.8187 328.29 57.5481C328.29 55.2804 327.683 53.4805 326.474 52.1544ZM327.884 67.3896C326.525 69.409 325.015 70.8797 323.35 71.8042C321.683 72.7273 319.723 73.19 317.465 73.19C315.571 73.19 313.84 72.8244 312.27 72.096C310.702 71.3677 309.357 70.3227 308.236 68.9608C307.118 67.5997 306.252 65.9539 305.641 64.0265C305.027 62.0995 304.721 59.9462 304.721 57.5669C304.721 55.1894 305.027 53.0658 305.641 51.1964C306.252 49.3259 307.146 47.7049 308.323 46.3331C309.499 44.9614 310.922 43.9121 312.586 43.1829C314.251 42.4545 316.097 42.0898 318.126 42.0898C322.373 42.0898 325.608 43.9934 327.828 47.8001V42.9695H337.341V72.0176H327.884V67.3896ZM357.306 73.19C355.177 73.19 353.206 72.8384 351.395 72.1403C349.583 71.44 347.981 70.3895 346.593 68.9902C345.204 67.5904 344.14 65.9305 343.401 64.0116C342.661 62.0948 342.293 59.9462 342.293 57.5669C342.293 55.3233 342.673 53.2438 343.43 51.3257C344.186 49.4072 345.232 47.7674 346.565 46.406C347.895 45.0439 349.504 43.9836 351.381 43.2258C353.26 42.469 355.275 42.0898 357.423 42.0898C358.858 42.0898 360.182 42.2331 361.391 42.5204C362.599 42.8075 363.73 43.2664 364.784 43.8959V52.5373C362.848 50.8494 360.923 50.0044 359.008 50.0044C357.014 50.0044 355.408 50.6799 354.192 52.0293C352.975 53.3801 352.366 55.2127 352.366 57.5262C352.366 59.7253 352.985 61.5019 354.222 62.8504C355.457 64.2007 357.138 64.8753 359.265 64.8753C361.315 64.8753 363.157 64.0325 364.784 62.3424V71.1902C362.33 72.5232 359.836 73.19 357.306 73.19ZM389.908 53.8423C389.737 52.1582 389.125 50.8182 388.072 49.8214C387.02 48.824 385.715 48.3258 384.158 48.3258C380.8 48.3258 378.838 50.1645 378.267 53.8423H389.908ZM379.752 64.817C380.878 66.0286 382.468 66.6332 384.527 66.6332C387.613 66.6332 389.718 65.4707 390.847 63.1454L398.506 66.2597C397.626 68.4182 396.013 70.1117 393.666 71.3443C391.32 72.5746 388.442 73.19 385.033 73.19C381.586 73.19 378.602 72.5326 376.082 71.2205C373.566 69.9062 371.635 68.0797 370.295 65.7391C368.953 63.3985 368.283 60.7712 368.283 57.8554C368.283 55.6493 368.666 53.5972 369.434 51.6993C370.197 49.7994 371.309 48.1223 372.766 46.6641C374.221 45.2073 375.94 44.0812 377.922 43.2837C379.904 42.4881 382.083 42.0898 384.459 42.0898C386.774 42.0898 388.902 42.4797 390.837 43.2562C392.77 44.0331 394.418 45.1471 395.779 46.5964C397.137 48.0457 398.181 49.827 398.91 51.9388C399.638 54.0501 400.002 56.4407 400.002 59.109V59.5992H378.037C378.056 61.867 378.627 63.6077 379.752 64.817Z" fill="#0067D8"/>
</g>
<defs>
<clipPath id="clip0_14_587">
<rect width="400" height="81.2789" fill="white" transform="translate(0 9.36035)"/>
</clipPath>
</defs>
</svg>
