<svg width="400" height="100" viewBox="0 0 400 100" fill="none" xmlns="http://www.w3.org/2000/svg">
<path d="M13.8628 33.8887C19.4535 33.5032 21.1776 35.7181 25.3731 35.8665C28.8383 35.9882 32.1724 33.436 37.2972 33.9312C41.3567 34.3529 45.0852 36.363 47.6686 39.5227C50.3768 42.8346 51.3705 46.981 50.919 51.1927C49.886 60.8139 41.3561 68.3534 34.2485 74.1123C31.525 76.2873 28.5339 78.4464 25.4871 80.1274C23.8969 79.3297 21.1792 77.4737 19.7267 76.3221C12.1759 70.2544 2.43408 62.9268 0.417198 52.8699C-1.64782 42.5734 4.12846 35.8545 13.8628 33.8887ZM25.4815 70.1428C27.9471 68.1911 30.901 65.9616 33.1179 63.8044C37.2573 59.8533 45.7574 51.22 39.949 44.8124C38.3492 43.236 36.6599 42.8384 34.5427 42.6704C31.8097 42.4542 28.0871 45.4516 25.6785 45.2468C20.6927 44.8213 19.9304 42.1485 14.3535 42.8676C-0.386461 49.3088 18.9269 65.3922 25.4815 70.1428Z" fill="#FEB100"/>
<path d="M198.604 41.4605C203.54 40.9729 207.4 41.5778 210.581 45.7337C216.174 38.3547 229.862 40.3737 231.424 49.7514C232.387 55.5363 231.887 64.0554 231.863 70.1352C229.255 69.9278 225.974 70.0534 223.36 70.1326C222.969 65.6603 224.561 53.4082 222.002 50.329C221.424 49.6334 220.62 49.1217 219.705 49.0602C218.455 48.9771 216.833 49.693 215.938 50.5364C214.459 51.9301 214.836 55.6764 214.842 57.6015L214.885 70.1212C211.908 70.0274 209.27 70.0458 206.29 70.1143C206.206 66.3642 206.366 62.6052 206.334 58.7987C206.307 55.45 207.11 49.2187 202.058 49.1915C196.977 49.1642 197.774 55.9618 197.789 59.4677L197.829 70.0927C194.91 70.0204 191.989 70.023 189.07 70.1003C189.019 69.0642 188.932 67.7725 188.996 66.7459C189.603 57.0182 186.075 44.56 198.604 41.4605Z" fill="#AD207E"/>
<path d="M139.795 41.4466C149.247 40.9063 156.123 43.7851 157.541 54.3835C157.828 56.5242 157.664 58.9218 157.66 61.105L157.631 70.1935C155.44 69.912 152.04 70.0515 149.772 70.1073C149.712 69.1054 149.92 67.0497 149.651 66.382C149.002 66.5608 148.283 67.6996 147.82 68.3007C143.651 71.4326 139 71.5848 134.523 68.9767C131.401 67.1289 129.135 64.1233 128.217 60.6135C126.796 55.1641 128.056 48.5865 132.49 44.8587C134.866 42.8606 136.849 42.1992 139.795 41.4466ZM144.167 62.6928C152.365 59.5197 149.813 48.1477 140.998 49.4147C137.059 51.0716 135.087 54.6955 136.844 58.8121C137.514 60.3999 138.793 61.6528 140.394 62.2888C141.67 62.8018 142.833 62.7581 144.167 62.6928Z" fill="#AD207E"/>
<path d="M312.07 41.4586C317.018 40.8702 321.939 41.5594 325.588 45.229C330.078 49.7451 329.971 55.1825 329.953 61.1126L329.91 70.0401C328.173 70.191 326.491 70.2227 324.752 70.2665C324.662 67.7738 324.676 66.1543 325.135 63.7061C323.975 65.8931 323.551 66.5386 321.765 68.2481C316.955 71.5829 310.934 71.7027 306.071 68.3845C302.943 66.2444 300.814 62.9306 300.168 59.1963C298.598 50.5066 303.216 43.021 312.07 41.4586ZM316.358 65.5266C319.788 65.0123 322.676 62.6947 323.922 59.4576C325.166 56.2205 324.575 52.5643 322.374 49.8846C320.174 47.2048 316.701 45.9151 313.284 46.5073C308.084 47.409 304.578 52.3265 305.419 57.5363C306.261 62.746 311.139 66.3084 316.358 65.5266Z" fill="#FEB100"/>
<path d="M96.8938 29.7076C99.4651 29.804 103.07 29.8871 105.606 29.6106C105.411 34.5826 105.753 39.7499 105.405 44.6971C107.428 42.7618 109.447 41.1633 112.378 41.2971C124.298 41.843 124.536 51.6881 124.516 60.5642L124.486 70.0751C121.534 70.0383 118.9 70.0263 115.954 70.1607L115.942 61.055C115.975 58.4356 116.229 54.837 115.456 52.3685C114.398 48.9913 109.465 48.2576 107.03 50.7268C106.409 51.3565 105.983 52.1516 105.803 53.0178C105.336 55.1858 105.533 67.0492 105.535 70.0631C102.651 70.0117 99.7676 70.039 96.8862 70.1449L96.8938 29.7076Z" fill="#AD207E"/>
<path d="M279.593 41.469C280.318 41.4018 281.044 41.3555 281.772 41.3289C288.649 41.0454 294.399 43.7537 296.918 50.5506C297.888 53.1682 297.915 55.4002 298.017 58.144L273.435 58.1103C275.77 64.3702 279.982 67.1108 286.867 64.9434C288.207 64.5211 289.254 63.5554 290.312 62.6429C291.533 61.7539 295.093 62.0278 296.861 61.9689C296.808 62.0805 296.755 62.1921 296.7 62.303C292.856 70.1684 283.475 73.0016 275.758 69.1494C272.323 67.4158 269.733 64.3689 268.575 60.7C267.284 56.7908 267.631 52.5258 269.536 48.8766C271.901 44.2907 274.962 42.9268 279.593 41.469ZM273.809 53.068L285.374 53.0464L292.388 53.0692C289.836 47.907 287.307 46.0123 281.349 46.5158C277.478 47.1157 275.058 49.3319 273.809 53.068Z" fill="#FEB100"/>
<path d="M75.77 41.4555C85.4756 40.8328 90.1901 43.8904 93.1698 53.1363C90.2301 52.9441 87.3899 53.0247 84.4471 53.0672C80.6 46.4066 71.1538 48.929 72.0656 56.8901C72.2856 58.7791 73.2577 60.4995 74.7624 61.6618C78.567 64.5552 82.125 62.0733 84.5422 58.8812L87.9987 58.8698C89.7215 58.8508 91.4431 58.8165 93.1653 58.7664C92.4982 61.1018 91.8965 62.9978 90.4526 64.9946C85.7311 71.5246 75.4561 72.5112 69.0986 67.8683C66.0537 65.6033 64.0373 62.2172 63.497 58.4608C62.2294 50.04 67.2376 42.73 75.77 41.4555Z" fill="#AD207E"/>
<path d="M237.354 29.8051L242.582 29.6631C242.683 33.4081 242.821 43.2328 242.349 46.5815C242.875 45.8498 243.476 45.0476 244.092 44.3774C248.166 39.9507 256.566 40.4016 260.761 44.5175C265.191 48.8643 264.761 54.6505 264.806 60.4081L264.914 69.9938C263.076 70.0376 261.239 70.1282 259.406 70.2652C259.302 65.6908 259.265 61.1151 259.295 56.5395C259.231 53.7348 259.091 50.9492 257.103 48.8592C253.172 44.4199 244.154 45.9379 243.091 52.2314C242.128 57.9326 242.759 64.3884 242.549 70.2557C240.644 70.0889 238.863 70.0953 236.958 70.0858C236.929 68.4809 236.819 63.6249 236.91 62.3611C237.199 58.3143 236.308 31.131 237.354 29.8051Z" fill="#FEB100"/>
<path d="M372.407 29.7089C374.204 29.7895 376.287 29.7191 378.106 29.7007C378.385 33.0113 378.245 43.6344 377.645 46.7358C380.07 43.2083 382.363 41.2952 386.901 41.2692C390.344 41.2496 393.707 42.0663 396.217 44.5881C400.604 48.9951 399.978 54.9024 399.959 60.6087C399.945 63.7361 399.958 66.8634 399.999 69.9908L394.538 70.2457C394.439 65.6815 394.534 60.7323 394.536 56.1383C394.498 53.3476 394.387 51.0927 392.413 48.86C389.587 45.6642 383.792 45.4613 380.674 48.2906C377.276 51.3736 378.126 56.5276 378.125 60.6296C378.123 63.7627 378.324 66.8495 378.17 69.9991C376.253 70.0701 374.337 70.1582 372.421 70.2648C372.195 57.1414 372.307 42.8672 372.407 29.7089Z" fill="#FEB100"/>
<path d="M345.771 32.0276C347.584 32.1113 349.713 31.9909 351.55 31.9319L351.525 42.0934C356.227 41.7459 362.304 42.333 366.739 41.8004C366.838 43.5188 366.797 45.3044 366.783 47.0305C362.682 47.0438 355.32 47.2619 351.488 46.9347C351.603 51.3741 351.381 55.8381 351.501 60.2584C351.601 63.9337 354.587 66.0953 358.107 65.6058C360.014 65.3408 361.005 64.5101 362.138 63.0536C362.878 61.1519 362.823 60.6871 363.024 58.6187C364.744 58.5407 366.862 58.5882 368.614 58.5793C367.779 66.1936 365.355 70.86 356.96 70.794C343.858 70.6913 345.763 57.5984 345.775 48.9518C345.742 43.3108 345.74 37.6692 345.771 32.0276Z" fill="#FEB100"/>
<path d="M171.672 41.4423C177.897 41.1195 183.454 41.5342 186.043 48.3901C186.826 50.4655 186.84 52.3152 187.377 54.4096C184.442 54.3944 181.506 54.4268 178.572 54.5073C178.398 50.8263 175.957 47.0522 171.952 50.1447C170.22 51.4814 170.443 55.0095 170.478 57.1439L170.535 70.1119C167.696 69.9895 164.852 70.0117 162.015 70.1785C161.823 64.0429 161.805 57.2105 162.172 51.1218C162.504 45.6052 166.75 42.6027 171.672 41.4423Z" fill="#AD207E"/>
<path d="M335.28 29.6853C336.974 29.8102 339.019 29.7202 340.746 29.6859C340.912 32.3542 340.796 35.9921 340.791 38.7219L340.765 55.2193C340.765 58.4843 341.104 67.3807 340.805 70.0224L335.233 70.2075L335.207 44.6913C335.204 39.921 335.077 34.3979 335.28 29.6853Z" fill="#FEB100"/>
<path d="M21.8891 19.8733C23.1949 19.8638 24.0133 19.9367 25.2316 20.4675C27.2872 21.3825 28.8859 23.0895 29.6639 25.2004C31.0355 28.8769 30.0843 32.4475 26.1944 33.8242C24.9705 33.75 24.117 33.7119 22.9722 33.1926C20.8751 32.2618 19.2496 30.5148 18.4725 28.3557C17.1575 24.6532 17.9725 21.2259 21.8891 19.8733Z" fill="#AD207E"/>
</svg>
