<svg width="400" height="100" viewBox="0 0 400 100" fill="none" xmlns="http://www.w3.org/2000/svg">
<g clip-path="url(#clip0_16_417)">
<path d="M151.356 59.1528L150.602 59.9077C150.224 60.2852 141.165 69.3439 137.957 78.4027C136.919 78.4027 124.275 78.4027 122.104 78.4027C125.69 64.9089 143.147 50.9434 143.336 50.849L144.185 50.0941L143.336 49.3392C143.147 49.1505 128.049 36.506 122.293 22.2574C124.652 22.2574 137.202 22.2574 138.335 22.2574C142.109 33.4864 150.13 40.0917 150.413 40.2805L150.979 40.8466L151.545 40.2805C151.923 39.903 160.132 33.2977 164.001 22.2574C165.039 22.2574 177.683 22.2574 180.042 22.2574C174.003 36.506 158.811 49.1505 158.717 49.3392L157.867 50.0941L158.717 50.849C158.905 51.0377 176.362 64.7202 180.231 78.4027C178.061 78.4027 165.605 78.4027 164.378 78.4027C161.359 69.5327 151.923 60.2852 151.545 59.9077L151.356 59.1528ZM91.531 79.4407C103.421 79.4407 111.158 74.4395 113.8 72.3635C112.008 71.5143 105.78 68.4003 104.93 67.9285C103.704 69.3439 99.5518 70.7594 92.8521 70.7594C84.4539 70.7594 80.9625 67.1736 80.9625 55.0953V54.246H81.8117C95.4942 54.246 105.874 51.7926 114.744 46.0365C114.933 45.2817 115.499 43.017 115.499 41.0354C115.499 31.7879 109.271 21.125 91.8141 21.125C73.3192 21.125 64.2604 30.7499 64.2604 50.2828C64.0717 70.7594 72.2812 79.4407 91.531 79.4407ZM80.8681 46.2253C80.8681 37.6383 82.0948 29.3345 92.0972 29.3345C97.2871 29.3345 100.778 31.7879 100.778 38.2045C100.778 40.1861 99.7405 42.2621 99.7405 42.4508L99.5518 42.8282L98.9856 43.2057C93.9844 45.8478 91.3423 47.2633 81.7174 47.2633H80.8681V46.2253ZM52.3708 49.7167C52.3708 29.995 42.3685 20.3701 22.0807 20.3701C22.0807 20.3701 1.79288 20.3701 0 20.3701C0 22.163 0 77.5534 0 79.4407C4.43501 79.4407 22.0807 79.4407 22.0807 79.4407C42.3685 79.3463 52.3708 69.7214 52.3708 49.7167ZM16.2302 29.4289C16.2302 29.4289 17.2682 29.4289 22.6469 29.4289C24.0623 29.4289 25.4777 29.6176 27.0819 30.1838C32.2718 32.8259 34.7252 38.0158 34.7252 49.9054C34.7252 63.116 31.7056 68.4003 25.289 70.3819L22.6469 70.5706C17.2682 70.5706 16.2302 70.5706 16.2302 70.5706V29.4289ZM384.525 78.2139C384.525 76.4211 384.525 37.0722 384.525 37.0722C384.525 31.2217 383.77 29.4289 379.523 29.4289C372.069 29.4289 369.049 34.6188 368.861 34.8075L368.672 34.9962C368.672 34.9962 368.672 76.5154 368.672 78.2139C367.068 78.2139 354.423 78.2139 352.819 78.2139C352.819 76.4211 352.819 37.0722 352.819 37.0722C352.819 31.2217 352.064 29.4289 347.818 29.4289C340.363 29.4289 337.344 34.6188 337.155 34.8075L336.966 34.9962C336.966 34.9962 336.966 76.5154 336.966 78.2139C335.362 78.2139 322.718 78.2139 321.302 78.2139C321.302 76.4211 321.302 33.6751 321.302 33.6751C321.302 29.9007 317.528 26.4093 313.47 24.239C316.678 23.3897 325.548 20.6532 326.115 20.4645C327.908 21.2194 332.154 23.1066 333.38 24.8995L333.947 25.6544L334.702 25.0882C334.702 25.0882 341.779 20.6532 351.121 20.6532C357.915 20.6532 362.727 21.8799 365.558 24.6164L366.124 24.9938L366.69 24.8051C372.541 22.163 377.919 20.7476 382.732 20.7476C395.565 20.7476 400.189 25.9375 400.189 30.7499C400.189 30.7499 400.189 76.5154 400.189 78.3083C398.773 78.214 386.129 78.2139 384.525 78.2139ZM206.369 50.2828C206.369 65.192 210.427 70.7594 219.203 70.7594C225.808 70.7594 229.205 69.5327 230.432 68.1172C231.47 68.6834 237.698 71.8917 239.49 72.741C237.131 74.7226 230.054 79.7237 218.825 79.7237C199.387 79.7237 189.29 69.5327 189.29 50.5659C189.29 31.3161 199.481 21.4081 218.825 21.4081C230.054 21.4081 237.131 26.4093 239.49 28.3909C237.698 29.2401 231.47 32.4484 230.432 33.0146C229.205 31.5992 225.997 30.3725 219.391 30.3725C210.427 29.8063 206.369 35.1849 206.369 50.2828ZM275.254 20.9363C257.608 20.9363 246.945 31.7879 246.945 50.0941C246.945 68.4003 257.419 79.2519 275.254 79.2519C292.899 79.2519 303.185 68.4003 303.185 50.0941C303.373 31.9766 292.899 20.9363 275.254 20.9363ZM275.254 70.0045C267.61 70.0045 264.213 65.192 264.213 50.2828C264.213 35.3737 267.61 30.5612 275.254 30.5612C282.708 30.5612 285.917 35.1849 285.917 50.2828C286.105 65.3807 282.897 70.0045 275.254 70.0045Z" fill="#0DB02B"/>
</g>
<defs>
<clipPath id="clip0_16_417">
<rect width="400" height="59.2593" fill="white" transform="translate(0 20.3701)"/>
</clipPath>
</defs>
</svg>
