<svg width="400" height="100" viewBox="0 0 400 100" fill="none" xmlns="http://www.w3.org/2000/svg">
<g clip-path="url(#clip0_18_616)">
<g clip-path="url(#clip1_18_616)">
<path d="M57.6429 0.334961C55.8053 0.340312 54.0444 1.07269 52.7449 2.37211C51.4455 3.67154 50.713 5.43241 50.7076 7.27009V41.6742L89.8918 0.334961H57.6429Z" fill="#0B124B"/>
<path d="M174.982 52.0066C181.156 52.1359 187.18 50.0913 192.001 46.2302L200.588 59.9695C192.868 65.2186 183.688 67.8963 174.356 67.6209C152.029 67.6209 138.132 54.5046 138.132 33.8945C138.132 13.5958 152.185 0.0117188 170.921 0.0117188C188.097 0.0117188 201.837 11.5669 201.837 31.0838C201.821 33.6409 201.665 36.1952 201.37 38.7352H157.65C158.43 47.7913 165.925 52.0066 174.982 52.0066ZM157.961 24.8384H184.662C184.357 21.6309 182.819 18.6669 180.373 16.57C177.926 14.4732 174.762 13.407 171.546 13.5958C168.326 13.5924 165.206 14.714 162.726 16.7669C160.245 18.8197 158.56 21.6748 157.961 24.8384Z" fill="#0B124B"/>
<path d="M207.77 33.8947C207.77 11.7236 222.76 0.0119418 242.747 0.0119418C250.031 -0.153276 257.251 1.39789 263.825 4.54002L262.107 20.3106C256.996 17.2947 251.179 15.679 245.245 15.6262C242.855 15.4789 240.462 15.8437 238.225 16.6962C235.989 17.5486 233.96 18.8691 232.274 20.5691C230.589 22.2691 229.286 24.3095 228.454 26.5537C227.621 28.7979 227.277 31.1942 227.445 33.582C227.254 35.9558 227.57 38.3432 228.372 40.5854C229.174 42.8276 230.445 44.8734 232.099 46.5867C233.753 48.3 235.753 49.6417 237.965 50.5225C240.178 51.4034 242.553 51.8032 244.932 51.6954C250.547 51.6354 255.984 49.7133 260.39 46.2305L268.198 60.126C260.765 65.2599 251.935 67.9856 242.902 67.9338C222.292 67.9338 207.77 55.9107 207.77 33.8947Z" fill="#0B124B"/>
<path d="M340.802 32.801C340.802 51.8501 329.716 67.4643 310.043 67.4643C304.578 67.3533 299.18 66.2422 294.115 64.1858V79.2745L274.286 99.9996V1.26111H293.959V12.6588C295.576 8.94986 298.239 5.79284 301.622 3.57431C305.005 1.35577 308.962 0.172009 313.008 0.167969C330.497 0.167889 340.802 13.2842 340.802 32.801ZM307.856 16.5627C299.424 16.5627 293.959 24.6817 293.959 40.2961V48.4151C297.601 50.5837 301.744 51.7674 305.982 51.85C315.819 51.85 320.66 43.2629 320.66 33.1136C320.66 23.9013 317.069 16.5627 307.856 16.5627Z" fill="#0B124B"/>
<path d="M111.992 0.334961H101.853L50.7076 54.5185V61.4447C50.7131 63.2824 51.4455 65.0432 52.7449 66.3427C54.0444 67.6421 55.8053 68.3745 57.6429 68.3798H67.8706L118.927 14.2891V7.27009C118.922 5.4324 118.189 3.67152 116.89 2.37209C115.59 1.07267 113.829 0.340296 111.992 0.334961Z" fill="#0B124B"/>
<path d="M118.927 61.4446V26.5537L79.6277 68.3798H111.992C113.829 68.3744 115.59 67.642 116.89 66.3426C118.189 65.0431 118.922 63.2822 118.927 61.4446Z" fill="#0B124B"/>
<path d="M345.013 9.70317C344.442 9.73518 343.87 9.64547 343.336 9.43997C342.801 9.23446 342.317 8.91784 341.914 8.51105C341.511 8.10426 341.199 7.61657 340.999 7.08025C340.799 6.54393 340.714 5.97119 340.752 5.39992C340.749 4.8369 340.858 4.27891 341.072 3.75808C341.286 3.23725 341.601 2.76385 341.998 2.36513C342.396 1.96641 342.868 1.65024 343.388 1.43481C343.909 1.21938 344.466 1.10895 345.029 1.10987C345.592 1.11079 346.149 1.22304 346.669 1.44016C347.188 1.65729 347.66 1.975 348.056 2.37502C348.452 2.77503 348.766 3.24945 348.978 3.77098C349.19 4.29251 349.297 4.85084 349.292 5.41386C349.327 5.98517 349.239 6.55726 349.037 7.09246C348.834 7.62767 348.52 8.11387 348.116 8.51907C347.712 8.92426 347.226 9.23927 346.691 9.44336C346.157 9.64745 345.585 9.73599 345.013 9.70317ZM345.027 1.77212C344.55 1.75095 344.073 1.83105 343.628 2.00716C343.183 2.18328 342.781 2.45142 342.447 2.794C342.114 3.13658 341.856 3.54586 341.692 3.99496C341.527 4.44407 341.46 4.92286 341.494 5.39992C341.48 5.87243 341.56 6.34296 341.731 6.7837C341.902 7.22443 342.16 7.62644 342.489 7.96595C342.818 8.30545 343.211 8.57558 343.646 8.76036C344.082 8.94514 344.549 9.04082 345.022 9.04175C345.495 9.04268 345.963 8.94884 346.399 8.76578C346.834 8.58272 347.229 8.31415 347.559 7.97594C347.89 7.63773 348.149 7.23674 348.322 6.79668C348.494 6.35662 348.577 5.88642 348.565 5.41386C348.599 4.93561 348.533 4.45543 348.369 4.00486C348.204 3.5543 347.947 3.14354 347.613 2.79958C347.279 2.45563 346.876 2.18626 346.43 2.00917C345.984 1.83209 345.506 1.7513 345.027 1.77212ZM344.436 5.91172H344.15V7.86844H343.436V2.91755H344.004C344.261 2.91755 344.502 2.91755 344.745 2.93148C345.839 2.96978 346.458 3.45719 346.458 4.36242C346.464 4.6791 346.346 4.98548 346.13 5.21679C345.913 5.44809 345.615 5.58619 345.299 5.60187C346.284 5.8595 346.298 7.1268 347.294 7.26257L347.092 7.85445C345.703 7.66644 345.853 5.91172 344.436 5.91172ZM344.248 3.52336H344.15V5.27808H344.3C345.229 5.27808 345.758 5.14228 345.758 4.38678C345.759 3.65913 345.205 3.52336 344.248 3.52336Z" fill="#0B124B"/>
</g>
</g>
<defs>
<clipPath id="clip0_18_616">
<rect width="400" height="100" fill="white"/>
</clipPath>
<clipPath id="clip1_18_616">
<rect width="298.585" height="100" fill="white" transform="translate(50.7076)"/>
</clipPath>
</defs>
</svg>
