<svg width="400" height="100" viewBox="0 0 400 100" fill="none" xmlns="http://www.w3.org/2000/svg">
<g clip-path="url(#clip0_12_289)">
<path d="M230.958 10L228.617 21.0595H246.861L249.202 10H230.958Z" fill="#BA122B"/>
<path d="M275.923 36.5598C282.865 36.5598 286.175 38.9009 286.579 43.0179H305.549C306.195 29.2944 295.055 24.4508 278.264 24.4508C260.827 24.4508 247.668 30.7475 242.179 43.4215L245.812 26.3882H227.406L224.015 42.2106C223.208 31.2318 214.893 25.1773 201.412 25.1773C193.985 25.1773 186.962 27.8413 182.038 32.6042H181.876L183.168 26.3882H165.489L158.385 59.809H117.779L119.717 49.3146H155.963L158.708 36.5598H122.461L124.399 26.3075H165.489L168.314 13.0684H106.72L94.4493 73.1289H155.559L152.007 90.0007H170.252L174.772 68.8504H174.934C177.275 72.3216 182.926 74.9856 191.079 74.9856C204.964 74.9856 215.62 67.8817 220.786 57.9523L217.557 73.0482H235.721L239.353 56.2571C239.434 69.0118 249.606 74.9856 267.446 74.9856C287.628 74.9856 298.284 67.7202 303.935 54.804H284.56C281.977 60.2934 276.972 62.9574 270.352 62.9574C261.553 62.9574 257.598 58.1945 259.374 49.7182C261.15 41.2419 267.366 36.5598 275.923 36.5598ZM204.722 49.7989C203.107 57.5487 197.618 61.6657 189.303 61.6657C180.746 61.6657 177.275 56.9836 178.809 49.7989C180.342 42.6143 185.832 37.9321 194.389 37.9321C202.704 37.9321 206.417 42.0492 204.722 49.7989Z" fill="#BA122B"/>
</g>
<defs>
<clipPath id="clip0_12_289">
<rect width="211.1" height="80" fill="white" transform="translate(94.4501 10)"/>
</clipPath>
</defs>
</svg>
