<svg width="400" height="100" viewBox="0 0 400 100" fill="none" xmlns="http://www.w3.org/2000/svg">
<g clip-path="url(#clip0_7_565)">
<path fill-rule="evenodd" clip-rule="evenodd" d="M278.249 38.2258C289.332 37.0702 299.246 45.1572 300.37 56.2717C301.495 67.3861 293.404 77.3036 282.316 78.4035C271.266 79.4993 261.417 71.4232 260.296 60.3478C259.176 49.2729 267.206 39.3774 278.249 38.2258ZM292.662 57.5285C292.231 50.6966 286.355 45.5097 279.541 45.9465C272.734 46.3829 267.567 52.2676 267.997 59.093C268.428 65.9184 274.294 71.1023 281.102 70.675C287.916 70.2477 293.093 64.3603 292.662 57.5285Z" fill="black"/>
<path d="M172.282 21.2313L179.841 21.2478L179.834 35.6103C179.834 37.2181 179.928 41.0884 179.764 42.5175C180.571 42.1183 181.797 41.4269 182.545 40.9287C189.251 36.4572 199.477 37.4535 205.225 43.2337C206.662 44.6658 207.672 46.4706 208.144 48.4459C208.742 50.9703 208.552 57.1539 208.552 59.9819L208.544 78.5L200.871 78.5083V57.3724C200.887 54.0429 200.749 50.7391 198.296 48.1697C194.465 44.1557 187.126 44.3097 183.211 48.086C180.527 50.6744 179.75 53.7805 179.819 57.4123C179.857 59.3888 179.819 61.4333 179.82 63.4161C179.84 68.4427 179.834 73.4695 179.803 78.4961C177.331 78.5352 174.772 78.5078 172.294 78.5118L172.282 21.2313Z" fill="black"/>
<path d="M117.655 38.3026C119.891 38.0384 123.451 38.376 125.584 39.0281C132.461 41.1299 135.937 45.941 139.181 51.9712L122.804 59.1874C119.141 60.7965 115.34 62.4036 111.735 64.1013C110.897 62.4363 109.761 59.9919 108.807 58.4823C115.682 55.3806 122.758 52.3892 129.679 49.3611C129.144 48.7812 128.58 48.1949 128.007 47.6534C124.258 44.1093 117.654 43.7057 113.225 46.2132C110.147 47.9784 107.881 50.8803 106.909 54.2988C105.855 58.1081 106.521 62.1002 108.451 65.5101C109.949 67.9195 112.187 69.7757 114.829 70.7997C118.221 72.1233 122 72.0367 125.33 70.5599C129.465 68.6987 131.418 64.9958 132.945 60.9704C134.637 61.4433 137.841 62.1437 139.565 62.4248C138.275 66.0392 136.777 68.8413 134.41 71.7581C127.558 80.2039 114.035 80.5965 106.134 73.3877C102.427 70.1462 99.7142 65.6429 99.3305 60.6463C98.8871 54.8727 99.9276 49.7576 103.853 45.2822C107.611 40.9982 111.976 38.7034 117.655 38.3026Z" fill="#2E9CE6"/>
<path d="M229.897 38.0008L244.172 38.0063C246.218 38.0051 250.259 37.8901 252.078 38.2187C253.082 38.403 254.022 38.8478 254.802 39.5088C255.924 40.4738 256.597 41.9389 256.688 43.4192C256.907 46.9426 254.316 49.7668 252.262 52.3798L247.852 57.9718L240.875 66.8424C239.567 68.5043 238.113 70.4374 236.739 72.0204C243.469 72.1491 250.51 72.0458 257.268 72.0478C257.216 74.1766 257.257 76.4875 257.254 78.6315L240.674 78.6364C238.104 78.6369 235.091 78.7921 232.596 78.5366C229.053 78.1738 227.173 74.136 229.043 71.0864C230.835 68.1643 232.996 65.6332 235.011 62.9081C239.401 56.9734 244.057 51.1843 248.366 45.2018C242.471 45.3704 235.855 45.2247 229.903 45.2269L229.897 38.0008Z" fill="black"/>
<path d="M145.077 27.7208C147.459 27.751 149.877 27.729 152.262 27.7281L152.272 37.7699C157.338 37.8492 162.622 37.7749 167.704 37.7713C167.601 39.8352 167.679 42.8437 167.674 44.9751C162.583 45.0394 157.363 44.9859 152.262 44.9887C152.261 51.9799 152.256 58.9926 152.262 65.9823C152.263 67.4875 152.679 69.0231 153.824 70.0249C155.488 71.4797 156.839 71.3651 158.836 71.3074C161.572 71.3211 164.308 71.2746 167.042 71.1674L167.032 78.6292L165.892 78.6341C163.588 78.6522 161.284 78.6405 158.98 78.5979C155.455 78.5274 151.636 78.7771 148.97 76.0525C145.587 72.5957 145.028 68.2897 145.079 63.6618C145.112 60.5955 145.085 57.5072 145.085 54.446L145.077 27.7208Z" fill="black"/>
<path d="M214.033 37.9962C216.75 38.0538 219.625 38.0104 222.354 38.0098L222.343 78.5086L214.032 78.5057L214.033 37.9962Z" fill="black"/>
<path d="M217.015 21.302C219.262 20.6763 221.591 21.9867 222.229 24.2354C222.867 26.484 221.574 28.8272 219.336 29.4807C217.077 30.1399 214.715 28.8301 214.071 26.5617C213.428 24.2933 214.749 21.9332 217.015 21.302Z" fill="black"/>
</g>
<defs>
<clipPath id="clip0_7_565">
<rect width="202.124" height="59.7185" fill="white" transform="translate(98.9379 20.1407)"/>
</clipPath>
</defs>
</svg>
