<svg width="400" height="100" viewBox="0 0 400 100" fill="none" xmlns="http://www.w3.org/2000/svg">
<path d="M50.5901 23.4534C55.7283 23.3291 61.4055 23.3882 66.559 23.4374C66.8727 32.2559 66.346 41.361 66.5702 50.2086C66.7606 54.2082 66.1617 58.6357 66.9272 62.5653C68.4312 69.0459 73.0496 68.5423 77.9702 68.9492C93.0297 70.1941 90.6189 59.1705 90.6189 47.5328L90.6078 23.4295C95.9471 23.4035 101.286 23.407 106.626 23.44L106.636 44.5458C106.635 48.5957 106.642 52.7169 106.624 56.7631C106.589 64.8091 104.187 69.745 97.0654 73.7031C95.4331 74.469 93.9049 75.1081 92.1771 75.6425C89.7402 76.1216 86.7383 76.841 84.2838 76.9496C74.774 77.3711 61.9502 77.4014 54.9157 69.9941C52.9805 67.9876 51.6431 65.482 51.0535 62.7584C50.2301 59.1048 50.4777 50.8049 50.4742 46.6597C50.4247 38.9241 50.4635 31.1881 50.5901 23.4534Z" fill="#E3006C"/>
<path d="M296.816 23.4885C306.027 23.1615 316.881 23.414 326.221 23.4188C326.118 25.91 326.185 28.9649 326.175 31.4988C325.511 31.5483 324.845 31.5339 324.181 31.535C316.139 31.5503 308.099 31.4753 300.058 31.5264C296.642 31.5481 293.217 32.2405 290.739 34.7758C287.6 37.987 287.613 42.1945 287.652 46.3568C298.978 46.6693 311.716 46.4113 323.147 46.3714L323.153 54.4985C311.404 54.3432 299.389 54.7061 287.681 54.4649C287.625 58.3534 287.392 61.2047 288.799 64.8719C291.04 68.4281 293.934 68.8711 297.9 68.9475C300.599 68.9997 303.308 68.969 306.008 68.9686C312.741 68.9816 319.475 68.9598 326.207 68.9026L326.167 77.0957C319.907 77.0101 313.691 77.1218 307.328 77.083C297.157 76.9935 285.449 78.0638 277.105 71.0511C270.528 65.5237 271.679 57.3783 271.586 49.783C271.505 43.1493 271.281 37.2148 276.073 31.9841C281.256 26.3259 289.359 23.9029 296.816 23.4885Z" fill="#E3006C"/>
<path d="M148.681 36.7204C151.334 36.4754 157.977 36.0996 159.79 38.1052C160.371 38.7606 160.749 39.5707 160.877 40.4367C161.236 42.9449 161.113 52.0509 161.053 55.0397C160.911 62.0484 161.318 70.1997 160.939 77.0795L157.564 77.0718L145.071 77.0903C144.749 65.25 145.073 53.141 145.033 41.2834C145.025 38.9125 146.488 37.4308 148.681 36.7204Z" fill="#E3006C"/>
<path fill-rule="evenodd" clip-rule="evenodd" d="M224.482 21.0622C229.814 20.4498 232.99 20.4384 239.02 21.0622C239.45 21.1545 240.005 21.2934 240.431 21.3435C251.61 22.6543 263.013 28.6667 263.064 41.4011C263.1 46.0714 261.256 50.5605 257.945 53.8581C250.195 61.6483 239.314 61.698 229.267 61.6911L216.403 61.7077L216.374 77.0896L200.388 77.0954C200.205 68.8931 200.42 60.3618 200.342 52.1306C200.314 49.2274 200.171 41.0846 200.555 38.6355C200.963 36.1545 201.883 33.7852 203.257 31.6784C207.132 25.7996 214.109 22.7899 220.851 21.7087C222.065 21.5141 223.278 21.3098 224.482 21.0622ZM247.081 41.4011C246.952 30.0817 239.06 28.6044 229.736 29.1599C228.759 29.2225 227.523 29.1258 226.529 29.3327C213.735 30.5301 216.544 44.4193 216.396 53.5857C222.034 53.4727 231.997 53.9344 237.157 53.4421C243.745 53.1518 247.149 47.4591 247.081 41.4011Z" fill="#E3006C"/>
<path d="M358.68 21.0622C364.201 20.6921 367.385 20.6398 373.322 21.0622C375.321 21.4822 377.355 21.7684 379.368 22.2025C390.514 24.6063 399.359 33.101 396.875 45.2222C395.39 52.4578 390.188 56.4644 383.644 59.2301L394.994 71.529C395.965 72.5832 399.075 76.1502 400 76.9217V77.0772L381.289 77.0695C378.629 74.4745 375.427 70.7989 372.884 68.0112L359.69 53.6461C369.188 53.5225 380.509 55.5274 381.251 42.3003C381.425 34.1789 378.041 29.4795 369.617 29.2001C360.222 28.8198 350.958 28.7681 350.661 40.9443C350.368 52.9493 350.914 65.106 350.575 77.0872L334.73 77.0768C334.413 70.0734 334.877 61.6143 334.705 54.4147C334.63 51.2664 334.553 40.7902 334.955 38.2066C335.336 35.8351 336.218 33.5718 337.544 31.5678C341.198 26.0023 347.999 22.9871 354.36 21.8334C355.806 21.5713 357.239 21.3608 358.68 21.0622Z" fill="#E3006C"/>
<path d="M140.718 21.062H165.36C166.708 21.4684 169.074 21.5992 170.506 21.9346C175.504 23.1049 180.76 25.2341 184.385 28.9483C186.533 31.1632 188.053 33.9096 188.787 36.9054C189.757 40.8662 189.446 49.2753 189.445 53.6622L189.396 77.0751L173.431 77.0754C173.25 74.2455 173.361 70.2229 173.361 67.2912L173.373 49.4905C173.377 46.0337 173.598 40.6151 172.886 37.3401C172.492 35.4335 171.562 33.6786 170.205 32.281C167.958 29.958 164.168 29.1362 161.007 29.1678C155.212 29.235 149.129 29.1054 143.37 29.2412C138.439 29.3575 133.891 32.653 133.069 37.5938C132.338 41.9936 132.681 47.0617 132.651 51.5618C132.595 60.0643 132.728 68.5914 132.627 77.0893L116.766 77.0812L116.768 51.2321C116.767 48.4384 116.57 40.7778 116.93 38.4053C117.302 35.9821 118.189 33.6666 119.532 31.6145C122.919 26.5029 128.828 23.6059 134.639 22.2019C136.649 21.7163 138.684 21.4738 140.718 21.062Z" fill="#E3006C"/>
<path d="M24.0672 23.4467L40.0165 23.4253C40.0733 31.9468 40.0868 40.4686 40.0572 48.9903C40.0564 53.0016 40.3351 61.5731 39.5555 65.0626C38.9486 67.8606 37.5756 70.4357 35.5899 72.5006C30.9249 77.3078 22.7932 79.4257 16.2772 79.3935C10.8665 79.3666 5.41681 79.41 0 79.3996V79.1727C1.66443 76.7816 3.04039 73.5082 4.52541 71.3858C8.03939 71.2169 11.7933 71.2994 15.2874 71.228C26.4229 71 23.8089 59.8215 24.0414 52.1409C24.3271 42.7067 23.7299 32.895 24.0672 23.4467Z" fill="#E3006C"/>
</svg>
