<svg width="400" height="100" viewBox="0 0 400 100" fill="none" xmlns="http://www.w3.org/2000/svg">
<g clip-path="url(#clip0_12_178)">
<g clip-path="url(#clip1_12_178)">
<path d="M175.136 60.3734H187.289V20.0766H175.136V60.3734ZM181.248 0C179.985 0 178.751 0.374395 177.701 1.07584C176.652 1.77729 175.833 2.77428 175.35 3.94074C174.867 5.1072 174.741 6.39074 174.987 7.62905C175.233 8.86736 175.841 10.0048 176.734 10.8976C177.627 11.7904 178.764 12.3983 180.003 12.6447C181.241 12.891 182.525 12.7646 183.691 12.2814C184.857 11.7982 185.854 10.98 186.556 9.93023C187.257 8.88044 187.632 7.64623 187.632 6.38366C187.632 4.69061 186.959 3.0669 185.762 1.86973C184.565 0.672562 182.941 0 181.248 0ZM54.3729 3.01628L41.1188 28.6307C39.3633 32.038 36.8577 37.2965 35.2937 41.1746H35.0463C33.4504 37.2965 30.9767 32.038 29.2212 28.6307L15.9353 3.01628H5.45808L0.510742 60.3734H12.7514L14.7782 36.8337C15.0575 33.5142 15.3368 29.9154 15.3368 26.0373H15.5123C16.9873 29.8108 18.6519 33.5074 20.4996 37.113L32.6285 60.5729H37.7115L49.8405 37.113C51.588 33.6977 53.3435 29.8276 54.8277 26.0373H55.0032C55.0032 29.9154 55.2825 33.5142 55.5618 36.8337L57.5647 60.3734H69.8293L64.882 3.01628H54.3729ZM157.501 26.2209C156.947 27.0998 156.502 28.043 156.176 29.0297V20.0766H144.845V60.3734H156.815V44.6218C156.815 39.7542 158.355 35.7884 161.283 33.1392C164.1 30.7356 167.708 29.4618 171.409 29.5643H171.768V19.3584C167.036 19.4382 160.788 20.7948 157.501 26.2209ZM107.836 46.8082V34.8388C107.836 24.6409 101.213 18.7919 89.6665 18.7919C85.4447 18.7698 81.2549 19.5244 77.3061 21.0182V30.1388C80.9736 28.5431 84.9329 27.7279 88.9324 27.745C95.316 27.745 96.2257 30.9368 96.2257 32.828V34.9824L87.2487 35.8841C79.0297 36.6821 73.6834 41.7491 73.6834 48.6993C73.6834 56.4794 79.4606 61.6981 88.0466 61.6981C90.1157 61.7656 92.1764 61.4042 94.099 60.6365C96.0216 59.8688 97.7645 58.7116 99.218 57.2375L99.8883 56.5034L100.407 57.3492C101.947 59.8548 104.556 61.339 108.179 61.6661L112.233 53.5589C109.432 52.7051 107.836 50.3112 107.836 46.8082ZM96.6008 46.7124C96.6008 50.798 92.7067 53.6467 89.2117 53.6467C87.8997 53.7074 86.6174 53.2447 85.6463 52.3605C84.6753 51.4762 84.095 50.2426 84.0329 48.9307V48.835C84.0329 46.1299 85.6288 43.0737 90.1533 42.6508L96.6008 42.0125V46.7124ZM128.838 7.37312L117.348 11.6981V20.0766H109.967V29.6521H117.068V47.4465C117.068 55.4899 123.141 61.0996 131.839 61.0996C134.105 61.1463 136.36 60.7645 138.486 59.9745V50.798C137.301 51.0541 136.091 51.1798 134.879 51.173C131.296 51.173 128.982 48.9706 128.982 45.5873V29.676H140.449V20.1005H128.798L128.838 7.37312ZM232.9 20.0766H219.335L211.73 31.7427L204.086 20.0766H190.52L203.727 40.225L190.56 60.3734H204.126L211.77 48.7073L219.374 60.3734H232.94L219.694 40.225L232.9 20.0766Z" fill="#005B9E"/>
<path d="M397.335 22.0715C397.316 21.7081 397.155 21.3667 396.886 21.1217C396.617 20.8766 396.262 20.7476 395.899 20.7628H394.518V25.1676H395.364V23.444H395.899L397.048 25.1835L397.75 24.7127L396.697 23.2126C396.897 23.0989 397.063 22.9324 397.175 22.7312C397.288 22.5301 397.343 22.3019 397.335 22.0715ZM395.739 22.6779H395.332V21.497H395.739C396.194 21.497 396.465 21.7284 396.465 22.1034C396.465 22.4784 396.226 22.7019 395.771 22.7019L395.739 22.6779ZM395.907 19.3584C394.954 19.35 394.038 19.7202 393.358 20.3876C392.679 21.055 392.292 21.965 392.284 22.9173C392.275 23.8697 392.646 24.7864 393.313 25.4658C393.98 26.1451 394.89 26.5316 395.843 26.54H396.05C396.509 26.5287 396.961 26.4269 397.381 26.2407C397.801 26.0545 398.18 25.7873 398.496 25.4546C398.813 25.1219 399.06 24.7301 399.225 24.3016C399.39 23.873 399.469 23.4162 399.457 22.9572C399.455 22.0193 399.086 21.1196 398.428 20.4512C397.77 19.7828 396.876 19.3991 395.938 19.3824L395.907 19.3584ZM395.731 25.7979C395.356 25.7906 394.986 25.7095 394.642 25.5591C394.298 25.4088 393.987 25.1922 393.727 24.9217C393.467 24.6513 393.263 24.3323 393.126 23.9829C392.989 23.6335 392.923 23.2605 392.93 22.8854C392.937 22.5103 393.019 22.1402 393.169 21.7964C393.319 21.4527 393.536 21.1419 393.806 20.8818C394.077 20.6217 394.396 20.4174 394.745 20.2806C395.095 20.1439 395.468 20.0772 395.843 20.0846H396.01C396.371 20.0989 396.725 20.1843 397.053 20.3357C397.38 20.4871 397.675 20.7016 397.919 20.9669C398.164 21.2322 398.354 21.5432 398.478 21.882C398.602 22.2208 398.659 22.5807 398.644 22.9413V22.9971C398.635 23.7534 398.327 24.4754 397.787 25.005C397.247 25.5345 396.519 25.8283 395.763 25.8219L395.731 25.7979ZM233.323 31.6949C233.323 51.2288 249.481 61.7699 264.682 61.7699C271.585 61.7699 276.732 60.6527 280.41 58.3466V47.9173C276.907 49.7925 272.215 50.7979 266.813 50.7979C254.947 50.7979 246.345 42.7705 246.345 31.7108C246.345 20.6511 254.756 12.5598 266.35 12.5598C271.271 12.4877 276.124 13.7242 280.41 16.1427V4.79571C276.564 2.77688 270.835 1.60388 264.69 1.60388C249.489 1.62782 233.323 12.1609 233.323 31.6949ZM317.978 46.8082V34.8388C317.978 24.6409 311.363 18.7919 299.817 18.7919C295.592 18.7691 291.4 19.5238 287.448 21.0182V30.1388C291.116 28.5446 295.075 27.7295 299.074 27.745C305.418 27.745 306.376 30.9368 306.376 32.8279V34.9824L297.399 35.8841C289.172 36.6821 283.833 41.7491 283.833 48.6993C283.833 56.4794 289.619 61.698 298.197 61.698C300.266 61.7656 302.326 61.4042 304.249 60.6365C306.172 59.8688 307.915 58.7115 309.368 57.2375L310.038 56.5033L310.565 57.3492C312.105 59.8548 314.714 61.339 318.337 61.6661L322.391 53.5589C319.582 52.7051 317.978 50.3112 317.978 46.8082ZM306.743 46.7124C306.743 50.7979 302.849 53.6467 299.354 53.6467C298.042 53.7052 296.761 53.2419 295.791 52.358C294.82 51.4742 294.239 50.2419 294.175 48.9307V48.835C294.175 46.1299 295.771 43.0737 300.295 42.6508L306.743 42.0124V46.7124ZM372.638 18.7839C360.445 18.7839 351.604 27.713 351.604 40.0016C351.604 52.7689 361.355 61.6821 375.311 61.6821C379.766 61.8219 384.192 60.9116 388.23 59.0249V50.1117C384.739 51.9716 380.83 52.9057 376.875 52.8248C369.023 52.8248 364.978 48.2604 363.908 44.3584C363.814 44.0448 363.742 43.7248 363.693 43.4009H390.975C391.558 39.4919 391.429 35.5096 390.592 31.647C389.068 25.4309 383.379 18.7919 372.638 18.7919V18.7839ZM379.764 36.2193H363.318C363.333 35.9212 363.373 35.6249 363.438 35.3335C363.835 33.1793 364.965 31.2287 366.636 29.8122C368.307 28.3958 370.416 27.6006 372.606 27.5614C374.488 27.5208 376.31 28.2292 377.67 29.531C379.03 30.8328 379.818 32.6214 379.86 34.5037V34.5595C379.884 35.1172 379.852 35.676 379.764 36.2272V36.2193ZM352.498 29.5563V19.3584C347.766 19.4382 341.51 20.7948 338.23 26.2209C337.676 27.0997 337.231 28.043 336.906 29.0297V20.0766H325.575V60.3734H337.544V44.6218C337.544 39.7542 339.084 35.7884 342.013 33.1392C344.827 30.7367 348.432 29.463 352.131 29.5643L352.498 29.5563Z" fill="#F26522"/>
<path d="M270.468 86.6182C269.836 86.6244 269.216 86.7803 268.656 87.073C268.215 87.3146 267.842 87.6631 267.571 88.0864L268.888 82.3491H267.427L264.363 95.6511H265.832L266.207 94.0552C266.414 94.7494 266.773 95.8586 268.936 95.8586C273.189 95.8586 273.771 91.4778 273.771 90.3447C273.755 88.3019 272.606 86.6182 270.468 86.6182ZM270.907 93.8796C270.354 94.3933 269.627 94.6785 268.872 94.6776C268.074 94.6776 266.749 94.2626 266.749 92.2837C266.782 91.3059 267.013 90.3449 267.427 89.4589C267.664 88.9603 268.035 88.5377 268.499 88.2387C268.963 87.9398 269.501 87.7765 270.053 87.7673C271.146 87.7673 272.287 88.4136 272.255 90.2888C272.26 91.6128 271.78 92.8927 270.907 93.8876V93.8796ZM277.865 93.8796L277.17 86.8097H275.718L276.692 95.4835L275.527 97.4784C275.323 97.8467 275.052 98.174 274.729 98.4439C274.454 98.6149 274.134 98.6984 273.811 98.6833C273.578 98.6892 273.346 98.6704 273.117 98.6275L272.814 99.9122C273.148 99.9681 273.488 99.9921 273.827 99.984C275.503 99.984 275.878 99.3775 276.708 98.0769L283.387 86.7938H281.791L277.865 93.8796ZM307.198 82.5247C307.25 81.6857 307.089 80.8471 306.731 80.0868C306.372 79.3265 305.827 78.6691 305.147 78.1758C304.28 77.5685 303.266 77.2073 302.21 77.1305C301.819 77.1305 301.452 77.1305 301.061 77.1305H292.898L288.701 95.6431H293.297L294.813 89.0041H298.045L300.479 95.6431H305.514L302.538 88.3019C303.49 88.0408 304.393 87.6257 305.211 87.073C305.71 86.6646 306.13 86.1667 306.448 85.6048C306.953 84.6518 307.21 83.5872 307.198 82.5087V82.5247ZM302.21 84.1765C302.041 84.5122 301.796 84.8047 301.496 85.0316C301.196 85.2584 300.848 85.4135 300.479 85.4851C300.149 85.5464 299.816 85.5837 299.481 85.5968H295.603L296.76 80.5298H299.88C301.189 80.5298 301.74 80.7452 302.21 81.3277C302.483 81.6995 302.623 82.1517 302.609 82.6125C302.61 83.154 302.473 83.6867 302.21 84.1605V84.1765ZM330.251 87.5039C329.701 87.2997 329.142 87.1239 328.575 86.9773C327.394 86.6342 326.452 86.4028 326.452 85.6686C326.452 85.0861 327.051 84.6153 328.184 84.6153C329.106 84.5942 330.006 84.9026 330.721 85.4851C331.015 85.7636 331.27 86.0803 331.479 86.4267L334.552 84.9345C334.335 84.5362 334.081 84.1595 333.794 83.8094C332.9 82.788 331.352 81.631 328.208 81.631C325.064 81.631 323.54 82.8119 322.806 83.969C322.427 84.5133 322.217 85.1572 322.203 85.8202C322.189 86.4831 322.371 87.1355 322.726 87.6954C323.524 88.9961 324.689 89.3951 327.37 90.2329C328.312 90.5202 328.886 90.6718 329.205 91.1267C329.302 91.2655 329.357 91.4287 329.365 91.5975C329.357 91.7737 329.302 91.9446 329.205 92.0922C329.025 92.338 328.766 92.5152 328.471 92.5949C328.046 92.7234 327.606 92.7932 327.163 92.8024C326.604 92.8316 326.046 92.7365 325.528 92.524C325.011 92.3115 324.547 91.9869 324.17 91.5735C323.978 91.3237 323.81 91.0565 323.667 90.7756L320.284 92.4513C320.513 92.8975 320.797 93.3131 321.13 93.6881C321.854 94.4817 322.742 95.1072 323.733 95.5208C324.725 95.9344 325.794 96.1259 326.867 96.082C328.793 96.1928 330.688 95.5649 332.166 94.3265C332.592 93.9393 332.938 93.4711 333.182 92.9492C333.425 92.4272 333.563 91.8619 333.586 91.2863C333.593 90.8771 333.531 90.4697 333.403 90.0813C332.956 88.669 331.615 88.0146 330.251 87.5039ZM351.309 77.1305L345.563 89.2754L345.252 77.1305H338.446L334.296 95.6511H338.621L341.813 81.1203L342.34 95.6511H346.218L353.136 81.3277L349.832 95.6511H354.133L358.259 77.1305H351.309ZM383.929 77.1305L382.485 83.5142C382.247 83.1562 381.953 82.8384 381.615 82.5726C380.754 81.9743 379.727 81.6617 378.679 81.6788C377.528 81.6972 376.403 82.0134 375.411 82.5966C374.42 83.1798 373.596 84.01 373.021 85.0063C372.039 86.6034 371.512 88.4382 371.497 90.3127C371.428 91.1865 371.565 92.0644 371.897 92.8753C372.23 93.6863 372.749 94.4075 373.412 94.9808C374.224 95.667 375.262 96.028 376.325 95.9942C377.385 96.0069 378.426 95.7072 379.317 95.1324L379.939 94.6856L379.756 95.6271H383.794L387.983 77.1305H383.929ZM380.442 91.4059C380.173 91.8693 379.788 92.2548 379.325 92.5248C378.862 92.7947 378.337 92.9399 377.801 92.946C377.45 92.9778 377.098 92.9118 376.782 92.7555C376.467 92.5991 376.201 92.3585 376.013 92.0603C375.688 91.5112 375.533 90.8782 375.567 90.2409C375.567 88.5413 376.221 86.3629 377.713 85.3654C378.129 85.068 378.622 84.8962 379.133 84.8707C379.625 84.8391 380.113 84.9749 380.517 85.2561C380.921 85.5372 381.218 85.947 381.36 86.4187C381.481 86.7837 381.535 87.1676 381.519 87.5518C381.502 88.9095 381.128 90.2388 380.434 91.4059H380.442ZM315.935 91.8688C315.604 92.2048 315.209 92.4711 314.773 92.652C314.337 92.8329 313.87 92.9247 313.398 92.9221C312.866 92.9385 312.34 92.8117 311.874 92.555C310.429 91.7571 310.645 89.9856 310.669 89.6185H320.492C320.547 89.044 320.603 88.4376 320.603 87.8311C320.611 87.1229 320.523 86.4168 320.34 85.7325C320.141 85.0258 319.802 84.3663 319.343 83.7934C318.725 83.0957 317.96 82.5435 317.103 82.1765C316.246 81.8095 315.319 81.6368 314.387 81.6709C312.968 81.6558 311.572 82.0283 310.35 82.7481C308.618 83.9055 307.389 85.6761 306.91 87.7034C306.765 88.3042 306.696 88.9207 306.703 89.5387C306.636 90.7897 306.952 92.0312 307.607 93.0987C308.263 94.1661 309.228 95.009 310.373 95.5154C311.3 95.8727 312.285 96.0514 313.278 96.0421C314.383 96.1086 315.488 95.9067 316.498 95.4537C317.508 95.0008 318.394 94.3101 319.079 93.4407C319.311 93.1375 319.534 92.8104 319.742 92.4752L316.598 90.8793C316.409 91.2316 316.185 91.5632 315.927 91.8688H315.935ZM312.424 85.2617C312.965 84.7532 313.677 84.4682 314.419 84.4637C314.936 84.4391 315.448 84.5745 315.885 84.8515C316.322 85.1286 316.663 85.5338 316.861 86.0118C316.947 86.3453 316.99 86.6886 316.989 87.0331H311.195C311.455 86.3535 311.874 85.746 312.416 85.2617H312.424ZM369.43 83.7615C368.812 83.0638 368.047 82.5116 367.191 82.1446C366.334 81.7776 365.406 81.6049 364.475 81.639C363.054 81.6249 361.655 81.9972 360.429 82.7162C358.702 83.8767 357.477 85.6465 356.998 87.6715C356.847 88.2712 356.774 88.8883 356.783 89.5068C356.719 90.7582 357.037 91.9995 357.693 93.0666C358.35 94.1337 359.315 94.9765 360.461 95.4835C361.388 95.8407 362.373 96.0194 363.366 96.0102C364.471 96.076 365.575 95.8738 366.585 95.4209C367.595 94.968 368.481 94.2777 369.167 93.4088C369.398 93.1056 369.614 92.7784 369.829 92.4433L366.677 90.8474C366.493 91.1901 366.271 91.5113 366.015 91.8049C365.683 92.1395 365.287 92.4049 364.852 92.5857C364.416 92.7665 363.949 92.8591 363.478 92.8582C362.948 92.8736 362.425 92.7469 361.961 92.4912C360.517 91.6932 360.725 89.9217 360.749 89.5547H370.579C370.635 88.9802 370.683 88.3737 370.683 87.7673C370.698 87.0592 370.612 86.3526 370.428 85.6686C370.218 84.9838 369.877 84.3467 369.422 83.7934L369.43 83.7615ZM361.275 87.0411C361.531 86.3463 361.953 85.7245 362.504 85.2298C363.043 84.72 363.757 84.4346 364.499 84.4318C365.016 84.4083 365.527 84.5442 365.964 84.8211C366.4 85.098 366.742 85.5025 366.941 85.9798C367.027 86.3134 367.07 86.6567 367.068 87.0012L361.275 87.0411Z" fill="#424243"/>
</g>
</g>
<defs>
<clipPath id="clip0_12_178">
<rect width="400" height="100" fill="white"/>
</clipPath>
<clipPath id="clip1_12_178">
<rect width="398.979" height="100" fill="white" transform="translate(0.510742)"/>
</clipPath>
</defs>
</svg>
