<svg width="400" height="100" viewBox="0 0 400 100" fill="none" xmlns="http://www.w3.org/2000/svg">
<g clip-path="url(#clip0_16_424)">
<g clip-path="url(#clip1_16_424)">
<path d="M141.175 100C139.319 100 137.465 99.947 135.613 99.8408C129.437 99.493 122.313 98.8238 115.894 95.3363C105.86 89.9033 100.609 81.3245 100.275 69.8715C100.253 69.1543 100.231 68.436 100.208 67.7165C100.07 63.2533 99.9149 58.6367 100.055 54.0645C100.298 45.185 100.269 36.1435 100.24 27.4058C100.222 22.3116 100.205 17.0524 100.24 11.8728C100.269 8.28215 101.141 7.08232 104.478 6.03872C112.037 3.6732 119.78 1.95239 127.625 0.89449C133.213 0.110183 138.861 -0.1592 144.497 0.0896887C149.643 0.349112 156.044 0.679287 161.928 2.98167C174.324 7.837 181.05 17.303 181.378 30.3538L181.439 32.662C181.58 37.883 181.732 43.2747 181.533 48.6225C181.389 52.5788 181.41 56.5052 181.428 60.2995C181.442 63.2475 181.457 66.045 181.39 68.6158V87.76C181.39 91.7428 180.488 92.9898 176.788 94.1158C170.328 96.0793 163.745 97.6097 157.083 98.697C151.824 99.5652 146.504 100.001 141.175 100ZM140.501 3.82185C136.361 3.84335 132.225 4.13878 128.123 4.70625C120.491 5.7371 112.958 7.41355 105.605 9.71782C104.49 10.0686 104.238 10.2455 104.18 10.3074C104.121 10.3693 104.054 10.7761 104.045 11.9259C104.01 17.0819 104.027 22.3323 104.045 27.4088C104.074 36.182 104.103 45.2557 103.861 54.1942C103.735 58.6545 103.875 63.212 104.013 67.6223C104.033 68.3415 104.057 69.0608 104.077 69.7803C104.37 79.9095 108.828 87.1732 117.688 91.9873C123.419 95.1035 129.785 95.696 135.815 96.0407C142.723 96.4335 149.652 96.0648 156.48 94.9413C162.975 93.8778 169.392 92.384 175.69 90.4693C177.113 90.0358 177.377 89.8325 177.424 89.7645C177.47 89.6968 177.59 89.225 177.59 87.7805V68.539C177.655 66.0215 177.64 63.2503 177.626 60.317C177.608 56.4848 177.587 52.5168 177.734 48.478C177.921 43.266 177.777 37.9242 177.64 32.7622C177.619 31.99 177.596 31.2205 177.578 30.448C177.429 24.614 175.843 19.6024 172.869 15.5519C170.012 11.6665 165.868 8.63885 160.546 6.55167C155.626 4.6237 150.497 4.23163 144.304 3.91617C143.057 3.8533 141.789 3.82185 140.501 3.82185ZM158.696 33.0305C155.081 29.8525 150.667 27.3762 146.315 25.2862C140.37 22.4354 134.088 20.8642 127.581 19.9798C123.887 19.4668 117.629 18.0459 115.174 21.9137C113.104 25.1565 113.35 30.4067 113.245 34.1242C113.101 38.7082 113.409 43.2952 114.167 47.8177C115.551 55.8832 119.248 63.958 124.927 69.8745C126.624 71.63 128.471 73.232 130.447 74.662C135.979 78.695 142.791 81.7933 149.739 81.6253C154.748 81.5042 159.018 79.3848 162.446 76.1448C164.326 74.3385 165.946 72.2755 167.258 70.016C175.003 56.9092 168.317 41.4972 158.696 33.0305ZM132.253 64.8453C131.468 66.614 128.012 64.3382 127.154 63.6278C126.12 62.738 125.201 61.7232 124.414 60.606C123.136 58.864 122.096 56.9575 121.32 54.937C120.937 53.9082 118.686 48.1213 121.113 47.974C122.512 47.8913 122.992 49.5658 123.285 50.627C123.662 52.0098 124.022 53.3835 124.531 54.7277C125.576 57.487 127.151 60.6855 129.683 62.366C130.389 62.8288 132.789 63.6013 132.253 64.8453ZM122.725 34.7315C122.702 34.142 122.992 33.6968 123.522 33.623C124.985 33.4225 125.421 35.162 125.688 36.2762C126.063 37.9675 126.931 39.5072 128.181 40.6982C128.767 41.2878 129.891 42.1368 129.221 43.1155C128.708 43.8645 127.707 43.26 127.172 42.8915C126.771 42.6237 126.39 42.3283 126.03 42.0073C125.019 41.0828 124.205 39.9613 123.637 38.7108C123.069 37.46 122.759 36.1062 122.725 34.7315ZM144.614 54.66C143.361 54.8102 143.312 53.6518 144.028 52.9383C146.139 50.807 147.377 48.4572 146.868 45.645C146.742 44.9552 147.043 44.4305 147.889 44.2565C148.803 44.0708 149.157 44.7223 149.289 45.4975C149.361 46.0278 149.383 46.5638 149.356 47.0983C149.285 49.8605 147.196 54.3475 144.614 54.66ZM154.54 73.076C154.067 73.7862 153.434 74.3735 152.693 74.7887C152.186 75.0335 150.521 75.0452 150.524 74.1315C150.524 73.5417 151.364 73.3768 151.727 73.079C152.179 72.7173 152.585 72.3003 152.936 71.8378C153.232 71.3652 153.595 70.9382 154.013 70.5703C154.153 70.456 154.314 70.371 154.487 70.3203C154.66 70.2698 154.841 70.2545 155.02 70.2755C156.079 70.5082 154.809 72.7075 154.54 73.076ZM165.981 60.836C165.237 65.7578 162.9 70.2945 159.334 73.7422C159.012 74.037 158.535 74.3703 158.163 74.1285C157.844 73.925 157.842 73.4593 157.921 73.0878C158.213 71.7375 159.042 70.5908 159.747 69.4088C160.965 67.3688 162.346 65.1195 162.82 62.7875C162.879 62.585 162.885 62.371 162.838 62.1655C162.812 62.064 162.763 61.9705 162.693 61.8927C162.624 61.8153 162.536 61.7557 162.439 61.7197C162.341 61.6838 162.237 61.6722 162.134 61.6862C162.031 61.7002 161.933 61.7393 161.848 61.8C161.424 62.027 161.263 63.1767 160.985 63.663C160.444 64.568 159.252 66.611 157.958 66.611C157.449 66.611 157.496 65.8418 157.642 65.488C158.757 62.7757 160.092 60.771 161.038 57.994C161.573 56.3228 161.771 54.561 161.623 52.8115C161.459 50.4295 161.163 47.9268 160.054 45.7805C159.653 45.0082 158.195 41.674 156.972 42.1488C156.334 42.4023 156.559 44.566 156.597 45.079C156.826 48.1802 156.814 51.1105 156.179 54.1912C155.544 57.2718 154.657 60.3555 153.064 63.0822C151.981 64.9337 148.806 69.8215 147.099 68.7395C146.792 68.545 146.765 67.855 146.917 67.3185C147.251 66.1807 148.443 64.7685 149.535 63.4272C152.169 60.1845 153.006 55.5885 153.428 52.0127C153.995 47.4107 153.881 43.3662 153.082 39.6605C152.693 37.8652 151.367 36.3057 150.064 35.1265C149.333 34.4662 146.048 31.2943 144.98 32.4733C144.573 32.9272 145.41 33.8148 145.632 34.189C146.338 35.3682 147.263 36.6978 147.626 38.0392C147.86 38.9235 147.568 39.64 146.654 39.8402C145.834 40.0202 145.422 39.3835 145.035 38.6613C142.832 34.534 139.31 31.1733 134.562 28.691C131.422 27.055 128.181 26.1058 125.046 25.186L124.098 24.8911C123.34 24.67 122.693 24.4813 122.594 23.7296C122.573 23.6521 122.571 23.5708 122.588 23.4924C122.605 23.414 122.64 23.3407 122.69 23.2786C122.883 23.0663 123.372 23.0781 123.814 23.1076C129.37 23.4798 134.856 24.5696 140.136 26.3505C143.612 27.4778 146.914 29.0925 149.944 31.1467C155.385 34.9172 161.559 39.9113 163.962 46.3643C165.712 51.0633 166.743 55.792 165.981 60.836Z" fill="#1E0E5E"/>
<path d="M198.381 29.2573L202.962 28.6058C203.2 29.2668 203.315 29.9663 203.302 30.6693C204.49 29.5403 205.916 28.5498 208.357 28.5498C211.852 28.5498 213.245 30.4631 213.245 33.3698V46.5943H207.848V35.0708C207.848 33.2253 207.239 32.7831 206.153 32.7831C205.704 32.7933 205.261 32.8958 204.853 33.0838C204.444 33.2718 204.078 33.5416 203.776 33.8768V46.5886H198.381V29.2573Z" fill="#1E0E5E"/>
<path d="M214.905 37.8006C214.905 32.2968 217.925 28.5381 223.15 28.5381C228.035 28.5381 231.293 31.4093 231.293 37.4911C231.293 44.0208 227.933 46.9926 223.048 46.9926C218.028 46.9926 214.905 43.5078 214.905 37.8006ZM225.524 37.5618C225.524 33.2548 224.71 32.1611 223.083 32.1611C221.523 32.1611 220.639 33.3226 220.639 37.6621C220.639 42.0016 221.353 43.3251 223.115 43.3251C224.745 43.3251 225.524 41.8336 225.524 37.5618Z" fill="#1E0E5E"/>
<path d="M233.158 29.2568L237.738 28.6053C237.947 29.2818 238.062 29.9843 238.078 30.6926C238.403 30.0243 238.911 29.4633 239.542 29.0758C240.173 28.6883 240.901 28.4903 241.64 28.5051C242.29 28.4908 242.935 28.6071 243.54 28.8471L242.726 33.5963C242.253 33.3546 241.732 33.2256 241.201 33.2191C239.638 33.2191 238.757 34.0738 238.552 35.3741V46.5763H233.158V29.2568Z" fill="#1E0E5E"/>
<path d="M249.681 45.353C249.628 45.7675 249.549 46.178 249.444 46.5823H244.76V22.7301L249.783 21.8457C250.066 23.1883 250.194 24.5594 250.164 25.9315V29.9998C250.875 29.2128 252.198 28.5258 253.998 28.5258C259.46 28.5258 260.376 33.449 260.376 37.5143C260.376 44.3478 257.561 46.9803 253.624 46.9803C252.058 46.992 250.53 46.3435 249.681 45.353ZM254.736 37.8328C254.736 33.9708 254.15 32.6738 252.429 32.6738C251.986 32.6683 251.547 32.7713 251.152 32.9735C250.756 33.1758 250.415 33.4713 250.158 33.8353V42.2428C250.392 42.5618 250.699 42.8185 251.053 42.9913C251.408 43.1638 251.799 43.2468 252.192 43.2333C253.992 43.2333 254.736 42.004 254.736 37.8328Z" fill="#1E0E5E"/>
<path d="M261.524 37.8331C261.524 31.8546 264.679 28.5381 269.462 28.5381C274.754 28.5381 276.826 31.5126 276.826 37.6296V39.1331H267.053C267.155 41.5918 267.969 42.9951 270.753 42.9951C272.415 42.9951 273.431 42.3463 274.654 41.4916L276.756 44.8728C274.856 46.2761 272.755 46.9926 270.006 46.9926C264.237 46.9926 261.524 43.4726 261.524 37.8331ZM271.598 36.0643C271.701 33.0543 270.99 32.1316 269.395 32.1316C267.799 32.1316 267.088 33.2253 267.053 36.0643H271.598Z" fill="#1E0E5E"/>
<path d="M278.691 29.2568L283.272 28.6053C283.481 29.2818 283.595 29.9843 283.611 30.6926C283.937 30.0241 284.445 29.4628 285.076 29.0753C285.707 28.6878 286.434 28.4901 287.173 28.5051C287.823 28.4908 288.469 28.6071 289.073 28.8471L288.26 33.5963C287.786 33.3548 287.263 33.2256 286.732 33.2191C285.172 33.2191 284.287 34.0738 284.097 35.3741V46.5763H278.691V29.2568Z" fill="#1E0E5E"/>
<path d="M291.107 42.105V32.639H289.48V28.9482H291.107C291.096 27.4707 291.175 25.9937 291.345 24.5261L296.47 23.7744V28.9335H299.59V32.6242H296.435V41.262C296.435 42.7977 296.774 43.1072 297.898 43.1072C298.475 43.0925 299.043 42.9515 299.561 42.6947L300 46.25C298.768 46.818 297.42 47.0875 296.066 47.037C292.635 47.0282 291.107 45.5925 291.107 42.105Z" fill="#1E0E5E"/>
<path d="M198.381 52.8703L203.404 51.9858C203.686 53.3336 203.81 54.7098 203.776 56.0866V60.5291C205.002 59.3303 206.648 58.6671 208.357 58.6838C211.852 58.6838 213.245 60.5971 213.245 63.5008V76.7253H207.848V65.2076C207.848 63.3623 207.239 62.9171 206.153 62.9171C205.704 62.9273 205.261 63.0298 204.853 63.2178C204.444 63.4058 204.078 63.6756 203.776 64.0108V76.7226H198.381V52.8703Z" fill="#1E0E5E"/>
<path d="M214.905 67.9762C214.905 61.9947 218.06 58.6812 222.846 58.6812C228.138 58.6812 230.207 61.6527 230.207 67.7699V69.2674H220.437C220.536 71.7289 221.353 73.1292 224.134 73.1292C225.796 73.1292 226.815 72.4806 228.035 71.6259L230.14 75.0102C228.24 76.4104 226.136 77.1267 223.387 77.1267C217.618 77.1327 214.905 73.6126 214.905 67.9762ZM224.982 66.2074C225.085 63.2004 224.371 62.2777 222.775 62.2777C221.18 62.2777 220.469 63.3714 220.434 66.2074H224.982Z" fill="#1E0E5E"/>
<path d="M240.964 75.3228C240.013 76.2456 238.859 77.1328 236.755 77.1328C233.295 77.1328 231.36 75.0486 231.36 71.8266C231.36 67.9646 234.074 66.187 238.994 66.187C239.484 66.1658 239.975 66.2003 240.458 66.2901V64.7866C240.458 63.5543 239.872 62.8706 238.286 62.8706C236.528 62.9018 234.822 63.4751 233.398 64.5126L231.6 60.8571C233.603 59.4891 236.316 58.7373 239.1 58.7373C243.341 58.7373 245.817 60.0021 245.817 64.3768V71.3813C245.817 73.8076 246.054 74.7981 246.666 75.8033L242.188 77.1711C241.866 76.9666 241.591 76.6963 241.38 76.3781C241.17 76.0596 241.028 75.7001 240.964 75.3228ZM240.419 72.6903V69.1026C240.104 69.0586 239.786 69.0361 239.468 69.0348C237.126 69.0348 236.383 69.8543 236.383 71.5288C236.383 72.9643 236.969 73.7838 238.35 73.7838C238.757 73.7808 239.156 73.6798 239.516 73.4896C239.876 73.2993 240.186 73.0253 240.419 72.6903Z" fill="#1E0E5E"/>
<path d="M248.255 72.0086V52.8703L253.278 51.9858C253.561 53.3336 253.687 54.7096 253.653 56.0866V71.1213C253.653 73.0021 253.922 73.2408 254.569 73.2408C254.729 73.2366 254.888 73.2138 255.043 73.1731L255.45 76.6576C254.589 77.0078 253.665 77.1706 252.737 77.1353C248.835 77.1323 248.255 75.0833 248.255 72.0086Z" fill="#1E0E5E"/>
<path d="M257.189 72.2475V62.7815H255.561V59.0905H257.189C257.178 57.613 257.257 56.1362 257.426 54.6685L262.542 53.9375V59.0995H265.677V62.7815H262.507V71.3925C262.507 72.9315 262.847 73.238 263.971 73.238C264.548 73.2232 265.115 73.0835 265.633 72.8282L266.075 76.3657C264.842 76.9342 263.494 77.2038 262.139 77.153C258.708 77.1677 257.189 75.732 257.189 72.2475Z" fill="#1E0E5E"/>
<path d="M267.665 52.8703L272.684 51.9858C272.967 53.3336 273.093 54.7096 273.059 56.0866V60.5291C274.285 59.3298 275.931 58.6666 277.64 58.6838C281.135 58.6838 282.525 60.5971 282.525 63.5008V76.7253H277.131V65.2076C277.131 63.3623 276.519 62.9171 275.433 62.9171C274.984 62.9276 274.543 63.0298 274.135 63.2178C273.726 63.4058 273.36 63.6756 273.059 64.0108V76.7226H267.665V52.8703Z" fill="#1E0E5E"/>
</g>
</g>
<defs>
<clipPath id="clip0_16_424">
<rect width="400" height="100" fill="white"/>
</clipPath>
<clipPath id="clip1_16_424">
<rect width="200" height="100" fill="white" transform="translate(100)"/>
</clipPath>
</defs>
</svg>
