<svg width="400" height="100" viewBox="0 0 400 100" fill="none" xmlns="http://www.w3.org/2000/svg">
<path fill-rule="evenodd" clip-rule="evenodd" d="M47.3498 88.7896C26.094 88.7896 8.69562 71.3913 8.69562 49.8266C8.69562 28.6093 26.094 11.2109 47.3498 11.2109C68.876 11.2109 86.2743 28.6093 86.2743 49.8266C86.2743 71.3913 68.876 88.7896 47.3498 88.7896ZM47.3498 72.5486C60.0033 72.5486 70.0333 62.5187 70.0333 49.8266C70.0333 37.4434 60.0033 27.4133 47.3498 27.4133C34.9281 27.4133 24.898 37.4434 24.898 49.8266C24.898 62.5187 34.9281 72.5486 47.3498 72.5486Z" fill="#166FC0"/>
<path fill-rule="evenodd" clip-rule="evenodd" d="M285.718 88.7896C264.462 88.7896 247.064 71.3913 247.064 49.8266C247.064 28.6093 264.462 11.2109 285.718 11.2109C307.244 11.2109 324.643 28.6093 324.643 49.8266C324.643 71.3913 307.244 88.7896 285.718 88.7896ZM285.718 72.5486C298.372 72.5486 308.402 62.5187 308.402 49.8266C308.402 37.4434 298.372 27.4133 285.718 27.4133C273.297 27.4133 263.267 37.4434 263.267 49.8266C263.267 62.5187 273.297 72.5486 285.718 72.5486Z" fill="#166FC0"/>
<path fill-rule="evenodd" clip-rule="evenodd" d="M90.7108 13.564V87.0151H106.913V27.1432H124.929V87.0151H141.131V27.1432H147.342C153.823 27.1432 158.838 32.1582 158.838 38.3307V87.0151H175.079V38.9094C175.079 24.4815 163.583 12.9468 149.117 12.9468H107.222C101.628 12.9468 95.9957 12.9468 90.7108 13.564Z" fill="#166FC0"/>
<path fill-rule="evenodd" clip-rule="evenodd" d="M329.079 13.564V87.0151H345.282V27.1432H363.606C369.778 27.1432 375.102 32.1582 375.102 38.3307V87.0151H391.304V38.9094C391.304 24.4815 379.808 12.9468 365.342 12.9468H345.282C339.997 12.9468 334.364 12.9468 329.079 13.564Z" fill="#166FC0"/>
<path fill-rule="evenodd" clip-rule="evenodd" d="M181.869 13.564V87.0151H198.071V27.1432H217.244C223.764 27.1432 228.779 32.1582 228.779 38.3307C228.779 44.8117 223.764 49.8266 217.244 49.8266H203.395L228.47 87.0151H248.53L230.244 60.1652C239.079 56.9247 244.981 48.3607 244.981 38.3307C244.981 24.4815 233.793 12.9468 219.597 12.9468H198.071C192.477 12.9468 187.154 12.9468 181.869 13.564Z" fill="#166FC0"/>
</svg>
