<svg width="400" height="100" viewBox="0 0 400 100" fill="none" xmlns="http://www.w3.org/2000/svg">
<g clip-path="url(#clip0_5_116)">
<path d="M395.487 33.6321C396.654 33.613 397.763 34.0719 398.585 34.875C399.407 35.6972 399.866 36.8063 399.866 37.9536C399.866 39.12 399.388 40.229 398.566 41.0321C397.744 41.8352 396.616 42.275 395.468 42.2559C392.983 42.2559 390.994 40.3437 390.994 37.9153C390.994 35.5443 392.983 33.6321 395.468 33.6321H395.487ZM395.411 34.6456C393.594 34.6456 392.218 36.0988 392.218 37.9727C392.218 39.8083 393.594 41.2998 395.43 41.2998C397.266 41.3189 398.623 39.8274 398.623 37.9727C398.623 36.0988 397.266 34.6456 395.43 34.6456H395.411ZM394.856 40.076H393.709V35.9649C394.264 35.8502 394.837 35.7928 395.411 35.812C396.271 35.812 396.673 35.9458 396.941 36.137C397.227 36.3282 397.4 36.6533 397.361 36.9975C397.361 37.4564 396.979 37.8197 396.463 37.9727V38.03C396.883 38.183 397.132 38.5081 397.247 39.0817C397.304 39.4259 397.4 39.751 397.533 40.076H396.31C396.176 39.9231 396.099 39.5597 396.004 39.1391C395.908 38.6993 395.698 38.5272 395.239 38.5272H394.837V40.076H394.856ZM394.876 37.7241H395.277C395.755 37.7241 396.118 37.552 396.118 37.1696C396.118 36.8063 395.87 36.6151 395.334 36.6151C395.124 36.6151 394.971 36.6342 394.876 36.6342V37.7241ZM-0.0191174 28.8135C3.11679 28.2781 7.53383 27.8766 13.7674 27.8766C20.0583 27.8766 24.5327 29.0812 27.5539 31.4905C30.4221 33.766 32.3725 37.5138 32.3725 41.9308C32.3725 46.3478 30.9001 50.0956 28.2232 52.6388C24.7431 55.9085 19.5994 57.3809 13.5762 57.3809C12.4098 57.4 11.2434 57.3235 10.0961 57.1705V73.2898H-0.0191174V28.8135ZM10.077 49.2925C10.9374 49.5029 12.0082 49.5602 13.4806 49.5602C18.8919 49.5602 22.2382 46.8259 22.2382 42.1985C22.2382 38.0492 19.37 35.5825 14.2837 35.5825C12.1994 35.5825 10.8036 35.7928 10.077 35.984V49.2925Z" fill="#373A36"/>
<path d="M64.1905 56.5777C64.1905 68.5477 55.7006 74.0355 46.943 74.0355C37.3823 74.0355 30.0206 67.7446 30.0206 57.1896C30.0206 46.6155 36.9807 39.8656 47.4784 39.8656C57.498 39.8656 64.1905 46.7493 64.1905 56.5777ZM40.5182 56.9219C40.5182 62.5436 42.851 66.7503 47.2107 66.7503C51.1497 66.7503 53.6928 62.8113 53.6928 56.9219C53.6928 52.0459 51.8189 47.0935 47.2107 47.0935C42.3156 47.0744 40.5182 52.1033 40.5182 56.9219ZM78.302 31.4904C78.302 34.3013 76.1604 36.5767 72.8142 36.5767C69.6018 36.5767 67.4602 34.3013 67.5367 31.4904C67.4793 28.5458 69.6018 26.3468 72.8907 26.3468C76.1604 26.3468 78.2255 28.5458 78.302 31.4904ZM67.8044 73.3089V40.5922H77.977V73.3089H67.8044ZM83.4457 51.0325C83.4457 46.9596 83.3118 43.4796 83.178 40.5922H92.0121L92.471 45.0666H92.6622C94.0007 43.0015 97.3469 39.8465 102.758 39.8465C109.451 39.8465 114.461 44.2635 114.461 53.9007V73.2898H104.288V55.1627C104.288 50.956 102.816 48.0687 99.1443 48.0687C96.3335 48.0687 94.6699 49.9999 94.0007 51.8738C93.733 52.5431 93.5991 53.48 93.5991 54.417V73.2707H83.4266V51.0325H83.4457ZM130.943 31.7008V40.5922H138.228V48.0878H130.943V59.9239C130.943 63.8629 131.88 65.6795 134.959 65.6795C136.355 65.6795 136.966 65.6221 137.98 65.4118L138.056 73.0986C136.718 73.634 134.309 74.0355 131.44 74.0355C128.171 74.0355 125.417 72.8309 123.811 71.1673C121.937 69.236 121 66.081 121 61.4728V48.0878H116.659V40.5922H121V34.4351L130.943 31.7008ZM174.884 72.0278C173.01 72.9647 168.803 74.0355 163.316 74.0355C147.732 74.0355 139.701 64.2645 139.701 51.434C139.701 36.0413 150.676 27.4941 164.31 27.4941C169.587 27.4941 173.603 28.5649 175.419 29.5018L173.354 37.5902C170.639 36.462 167.733 35.9075 164.788 35.9266C156.7 35.9266 150.409 40.8026 150.409 50.8413C150.409 59.8666 155.763 65.5647 164.864 65.5647C167.943 65.5647 171.347 64.8955 173.354 64.0924L174.884 72.0278ZM178.345 25.8114H188.518V73.3089H178.345V25.8114ZM204.58 31.4904C204.58 34.3013 202.438 36.5767 199.092 36.5767C195.879 36.5767 193.738 34.3013 193.814 31.4904C193.738 28.5458 195.879 26.3468 199.168 26.3468C202.438 26.3468 204.503 28.5458 204.58 31.4904ZM194.063 73.3089V40.5922H204.235V73.3089H194.063ZM234.275 72.5058C232.478 73.3089 229.055 74.0355 225.173 74.0355C214.599 74.0355 207.849 67.5534 207.849 57.2469C207.849 47.6863 214.408 39.8465 226.569 39.8465C229.246 39.8465 232.191 40.3245 234.332 41.1276L232.726 48.6806C231.522 48.1452 229.705 47.6863 227.047 47.6863C221.693 47.6863 218.213 51.4914 218.29 56.8454C218.29 62.8686 222.305 66.0045 227.258 66.0045C229.667 66.0045 231.541 65.603 233.07 64.9337L234.275 72.5058ZM247.373 54.3787H247.507C248.253 53.0402 249.037 51.7017 249.84 50.4397L256.475 40.6113H268.713L257.01 53.8625L270.395 73.328H257.89L250.012 59.8857L247.392 63.0981V73.328H237.22V25.8114H247.392V54.3787H247.373Z" fill="#373A36"/>
<path d="M304.221 72.0278C302.347 72.9648 298.14 74.0356 292.653 74.0356C277.069 74.0356 269.038 64.2645 269.038 51.4341C269.038 36.0414 280.013 27.4941 293.647 27.4941C298.924 27.4941 302.94 28.5649 304.756 29.5019L302.691 37.5902C299.976 36.4621 297.07 35.9075 294.125 35.9267C286.037 35.9267 279.746 40.8026 279.746 50.8413C279.746 59.8666 285.1 65.5648 294.182 65.5648C297.261 65.5648 300.664 64.8955 302.672 64.0924L304.221 72.0278ZM334.528 65.3353C334.528 68.4712 334.662 71.4924 334.987 73.2898H325.828L325.235 70.0201H325.025C322.884 72.6206 319.537 74.0356 315.656 74.0356C309.04 74.0356 305.082 69.217 305.082 63.9968C305.082 55.507 312.711 51.415 324.279 51.4915V51.0134C324.279 49.2734 323.342 46.8067 318.333 46.8067C314.986 46.8067 311.449 47.9349 309.307 49.2734L307.433 42.7148C309.709 41.4527 314.183 39.8465 320.149 39.8465C331.048 39.8465 334.528 46.2713 334.528 53.9581V65.3353ZM324.624 57.8589C319.27 57.7824 315.12 59.0635 315.12 63.0025C315.12 65.6222 316.86 66.8842 319.136 66.8842C321.679 66.8842 323.744 65.2015 324.413 63.1364C324.547 62.5627 324.624 61.9891 324.604 61.3963L324.624 57.8589ZM339.863 51.3576C339.863 46.539 339.729 43.4031 339.596 40.5923H348.372L348.716 46.6155H348.984C350.648 41.8734 354.663 39.8657 357.818 39.8657C358.755 39.8657 359.214 39.8657 359.96 39.9995V49.6367C359.061 49.4072 358.143 49.2925 357.225 49.2925C353.478 49.2925 350.935 51.3003 350.265 54.4362C350.131 55.1819 350.055 55.9467 350.074 56.7116V73.2898H339.902V51.3576H339.863ZM369.903 60.1917C370.228 64.3984 374.377 66.4061 379.139 66.4061C382.619 66.4061 385.43 65.9281 388.164 65.0676L389.502 71.9513C386.156 73.2898 382.083 74.0164 377.666 74.0164C366.557 74.0164 360.208 67.5343 360.208 57.3044C360.208 49.0057 365.352 39.8465 376.729 39.8465C387.303 39.8465 391.319 48.0687 391.319 56.1762C391.319 57.5147 391.204 58.8723 390.994 60.1917H369.903ZM381.873 53.2506C381.873 50.784 380.802 46.6346 376.117 46.6346C371.834 46.6346 370.094 50.5163 369.826 53.2506H381.873Z" fill="#373A36"/>
</g>
<defs>
<clipPath id="clip0_5_116">
<rect width="400" height="48.3771" fill="white" transform="translate(0 25.8115)"/>
</clipPath>
</defs>
</svg>
