<svg width="400" height="100" viewBox="0 0 400 100" fill="none" xmlns="http://www.w3.org/2000/svg">
<g clip-path="url(#clip0_16_394)">
<g clip-path="url(#clip1_16_394)">
<path d="M294.442 13.4736C292.177 12.2619 288.272 15.5149 290.383 17.6214C296.032 23.3818 299.322 28.6574 301.237 33.4065C304.09 40.3459 304.784 46.4092 304.5 54.1922C304.383 56.7322 303.768 60.139 302.016 65.685C300.332 70.1451 297.956 74.3115 294.974 78.0306C285.82 89.3789 266.349 95.0553 252.074 93.042C247.756 92.493 243.553 91.2563 239.626 89.3789L237.794 88.4468C237.794 88.4468 225.803 93.1772 217.111 90.0966L222.237 84.9701C223.692 83.5719 226.656 80.1604 226.628 80.0253L223.883 76.1804C217.824 67.5771 215.098 57.147 216.561 46.7122C217.516 39.2519 220.561 32.2139 225.346 26.4111C232.486 17.6261 242.189 12.3178 253.169 11.2226C253.397 11.6886 253.169 4.47419 252.987 4.81441C246.566 5.33248 240.322 7.1782 234.651 10.2347C228.98 13.2912 224.006 17.4919 220.042 22.5708C214.559 29.3539 211.07 37.5286 209.966 46.1809C208.321 58.1049 211.267 70.2087 218.206 80.0439L217.656 80.5939L211.798 86.2703C211.025 87.0095 210.464 87.9424 210.174 88.9719C209.884 90.0014 209.875 91.0898 210.148 92.1239C211.08 94.6872 213.443 96.3183 217.656 96.8869C217.656 96.8869 219.828 97.1339 220.718 97.1852C223.294 97.404 225.886 97.365 228.455 97.0687C228.455 97.0687 230.985 96.7424 231.2 96.7005C233.031 96.337 234.676 95.9688 236.508 95.4189C240.987 97.6374 245.82 99.0569 250.788 99.6133C253.031 99.92 255.296 100.042 257.559 99.9768C274.705 99.8137 290.761 93.5686 300.096 82.0386C305.639 75.2975 309.201 67.1497 310.386 58.5032C313.466 36.1888 301.834 19.0522 294.442 13.4736Z" fill="#262858"/>
<path d="M276.057 45.7893H266.759V36.692C266.759 35.0122 266.092 33.4012 264.904 32.2135C263.716 31.0257 262.105 30.3584 260.425 30.3584C258.746 30.3584 257.135 31.0257 255.947 32.2135C254.759 33.4012 254.092 35.0122 254.092 36.692V45.7893H245.204C244.373 45.7893 243.549 45.9531 242.781 46.2714C242.012 46.5897 241.314 47.0562 240.726 47.6443C240.138 48.2325 239.671 48.9307 239.353 49.6991C239.035 50.4675 238.871 51.2911 238.871 52.1229C238.871 52.9546 239.035 53.7782 239.353 54.5466C239.671 55.315 240.138 56.0133 240.726 56.6014C241.314 57.1895 242.012 57.656 242.781 57.9743C243.549 58.2926 244.373 58.4565 245.204 58.4565H254.092V67.5491C254.092 69.2288 254.759 70.8398 255.947 72.0276C257.135 73.2154 258.746 73.8827 260.425 73.8827C262.105 73.8827 263.716 73.2154 264.904 72.0276C266.092 70.8398 266.759 69.2288 266.759 67.5491V58.4565H276.057C277.737 58.4565 279.347 57.7892 280.535 56.6014C281.723 55.4136 282.39 53.8026 282.39 52.1229C282.39 50.4431 281.723 48.8321 280.535 47.6443C279.347 46.4565 277.737 45.7893 276.057 45.7893Z" fill="#DF6C26"/>
<path d="M283.919 15.2208C283.919 13.7092 284.367 12.2314 285.207 10.9745C286.047 9.71759 287.241 8.73794 288.637 8.15944C290.034 7.58095 291.571 7.42959 293.053 7.7245C294.536 8.01942 295.898 8.74736 296.967 9.81628C298.036 10.8852 298.764 12.2471 299.058 13.7297C299.353 15.2124 299.202 16.7491 298.624 18.1458C298.045 19.5424 297.065 20.7361 295.808 21.5759C294.552 22.4158 293.074 22.864 291.562 22.864C289.535 22.864 287.591 22.0588 286.158 20.6254C284.724 19.192 283.919 17.2479 283.919 15.2208Z" fill="#DF6C26"/>
<path d="M252.33 7.92283C252.33 6.35584 252.795 4.82404 253.665 3.52114C254.536 2.21824 255.773 1.20275 257.221 0.603092C258.669 0.00343283 260.262 -0.153465 261.799 0.152238C263.336 0.457942 264.747 1.21252 265.855 2.32054C266.963 3.42857 267.718 4.84028 268.024 6.37716C268.329 7.91404 268.172 9.50705 267.573 10.9548C266.973 12.4025 265.958 13.6398 264.655 14.5104C263.352 15.381 261.82 15.8456 260.253 15.8456C258.152 15.8456 256.137 15.0109 254.651 13.5251C253.165 12.0393 252.33 10.0241 252.33 7.92283Z" fill="#DF6C26"/>
<path d="M89.1201 47.5787V39.8423H114.711V47.5787H89.1201ZM108.671 81.3858C104.455 81.3858 101.192 80.2114 98.8838 77.8625C96.5753 75.5136 95.4242 72.0711 95.4304 67.5349V30.4048H104.36V67.2226C104.36 69.1831 104.838 70.704 105.795 71.7852C106.752 72.8665 108.094 73.4086 109.822 73.4117C111.607 73.4753 113.351 72.8684 114.711 71.7107L117.302 78.5942C116.14 79.5538 114.793 80.2644 113.345 80.6821C111.831 81.1471 110.255 81.3843 108.671 81.3858Z" fill="#262858"/>
<path d="M138.941 81.3858C134.672 81.3858 130.943 80.4692 127.755 78.6361C124.634 76.8765 122.068 74.277 120.35 71.1328C118.554 67.7696 117.651 64.0019 117.726 60.1899C117.65 56.3848 118.528 52.6211 120.28 49.2425C121.922 46.0933 124.41 43.465 127.465 41.6536C130.52 39.8421 134.02 38.9194 137.57 38.9894C141.056 38.908 144.494 39.8173 147.483 41.6116C150.473 43.4059 152.892 46.0116 154.46 49.1259C156.138 52.323 156.977 56.1136 156.977 60.4975C156.977 60.8564 156.977 61.3085 156.944 61.8491C156.911 62.3897 156.884 62.8697 156.837 63.2845H124.847V56.8577H152.093L148.499 58.8664C148.578 56.7205 148.122 54.5887 147.171 52.6633C146.308 50.9163 144.977 49.4433 143.326 48.4082C141.589 47.3743 139.596 46.8524 137.575 46.9029C135.545 46.8678 133.543 47.3884 131.787 48.4082C130.088 49.4071 128.724 50.888 127.867 52.6633C126.925 54.6708 126.458 56.8683 126.502 59.0854V60.6327C126.455 62.92 126.987 65.1821 128.049 67.2086C129.053 69.0929 130.589 70.6394 132.467 71.6547C134.524 72.7471 136.827 73.2942 139.155 73.2439C141.156 73.2756 143.14 72.88 144.976 72.0835C146.736 71.2883 148.305 70.1268 149.581 68.6767L154.465 74.712C152.709 76.8813 150.452 78.5911 147.889 79.6941C145.055 80.8691 142.008 81.4451 138.941 81.3858Z" fill="#262858"/>
<path d="M163.166 80.8404V23.4419H172.081V80.8404H163.166Z" fill="#262858"/>
<path d="M181.426 80.8404V23.4419H190.337V80.8404H181.426Z" fill="#262858"/>
</g>
</g>
<defs>
<clipPath id="clip0_16_394">
<rect width="400" height="100" fill="white"/>
</clipPath>
<clipPath id="clip1_16_394">
<rect width="221.76" height="100" fill="white" transform="translate(89.1201)"/>
</clipPath>
</defs>
</svg>
