<svg width="400" height="100" viewBox="0 0 400 100" fill="none" xmlns="http://www.w3.org/2000/svg">
<path d="M241.807 28.8363C260.223 26.494 277.052 39.5198 279.396 57.9314C281.74 76.343 268.713 93.1691 250.298 95.5149C231.88 97.8612 215.049 84.8347 212.703 66.4207C210.358 48.0065 223.389 31.1788 241.807 28.8363ZM248.158 79.2207C257.586 78.0509 264.275 69.453 263.089 60.0288C261.903 50.6045 253.29 43.9319 243.867 45.1344C234.465 46.334 227.811 54.9179 228.996 64.3191C230.178 73.7202 238.752 80.3879 248.158 79.2207Z" fill="#25ADE2"/>
<path d="M102.207 29.0181C103.505 28.7437 109.752 28.9258 111.225 29.0988C119.033 30.0741 126.147 34.0693 131.043 40.2281C137.971 49.0369 139.137 58.1657 137.85 68.9495C122.158 68.8541 105.874 68.7672 90.2032 68.9672C93.5178 79.7888 104.776 82.5872 114.775 79.4213C117.58 78.5332 119.944 76.3472 121.871 74.1806C122.917 74.7009 126.327 76.713 127.304 77.3516C128.868 78.0695 133.785 80.9165 135.131 81.9272C134.58 83.0197 133.902 84.0434 133.111 84.9769C127.988 91.1372 119.928 94.7435 112.046 95.3358C102.174 96.0776 92.3535 94.6195 84.5688 88.1009C78.0317 82.6267 73.9604 75.3295 73.2038 66.853C72.3264 57.023 73.882 47.7257 80.4625 40.0521C86.211 33.3488 93.4723 29.8053 102.207 29.0181ZM90.0749 56.1064L108.314 56.1381C112.57 56.1372 117.683 56.2699 121.875 56.0371C118.764 46.7546 113.618 43.276 103.863 43.7367C96.355 45.1323 92.015 48.516 90.0749 56.1064Z" fill="#25ADE2"/>
<path d="M177.775 29.0151C178.788 28.8273 180.466 28.9293 181.539 28.8805C192.463 28.3858 202.195 35.8954 204.536 46.5824C205.921 52.8972 205.44 60.6298 205.44 67.2287L205.442 93.9089C200.777 93.6875 193.78 93.6951 189.111 93.9044C188.807 85.1238 189.275 76.1521 189.076 67.3633C188.95 61.7663 189.818 54.5524 187.085 49.5189C183.791 43.4521 174.791 43.0019 169.232 45.9302C168.427 46.6307 167.325 47.3877 166.618 48.1486C161.662 53.4819 162.83 62.7145 162.832 69.5351L162.84 93.9075C157.966 93.6901 151.155 93.6996 146.272 93.8942C146.088 91.8884 146.187 88.6098 146.188 86.4665L146.195 73.1675L146.185 30.4833C149.469 30.5323 152.753 30.5542 156.037 30.5491C157.916 30.5531 161.099 30.6394 162.861 30.3396C162.863 32.6651 162.839 34.9903 162.789 37.3152C163.203 36.7289 163.815 35.7693 164.259 35.2584C167.645 31.3624 172.82 29.5258 177.775 29.0151Z" fill="#25ADE2"/>
<path d="M313.887 74.5492C314.374 72.2718 315.198 70.2955 315.941 68.1136C317.608 63.2013 319.415 58.2764 321.114 53.3793L326.388 38.0683C327.096 36.0457 328.04 32.4965 329.182 30.8436C329.972 30.1962 344.81 30.7144 347.293 30.416C346.168 34.5269 343.401 40.9271 341.874 45.1285C340.967 47.8967 339.167 52.1771 338.073 54.993L332.634 69.3822L327.461 82.9292C326.276 86.1048 324.562 90.9623 323.174 93.9743C321.301 93.7334 317.837 93.796 315.876 93.7999L304.449 93.8378C301.827 87.6227 299.36 80.1587 296.879 73.7709L287.21 48.3239C286.392 46.1783 280.529 31.5744 280.658 30.5576C286.608 30.5211 292.56 30.5153 298.512 30.5401C299.337 31.705 301.237 37.7399 301.778 39.3323L306.254 52.4008C308.709 59.5478 311.759 67.3492 313.887 74.5492Z" fill="#25ADE2"/>
<path d="M52.4194 13.0272L52.7872 12.9785L53.0456 13.1901C52.9407 18.9441 53.0255 24.7805 52.9712 30.5529C57.1165 30.3577 63.158 30.8612 67.0383 30.3808C67.3397 35.0234 66.9751 41.4782 67.1339 46.4289C65.9328 46.2543 63.1911 46.3105 61.9131 46.3119L52.9751 46.3313C53.1209 54.4445 52.8956 62.681 53.007 70.8015C53.0393 73.162 52.821 75.6741 54.7197 77.3748C57.3241 79.708 63.8237 79.0041 67.179 78.9359C66.9156 83.7378 67.1337 89.0098 67.0592 93.8813C63.859 94.2636 58.3915 94.3215 55.1854 94.1778C50.4238 93.8575 45.0425 92.7654 41.5904 89.2234C35.4596 82.9334 36.3933 73.5954 36.393 65.5513L36.4201 46.3029C33.9173 46.3031 27.7804 46.1496 25.4403 46.4382C25.3306 41.218 25.4249 35.6526 25.4211 30.4045C28.5672 30.6857 33.222 30.5424 36.4333 30.4961C36.3269 26.3582 36.5295 22.047 36.3216 17.931C38.791 16.9353 41.6981 16.1804 44.2825 15.3913C46.9322 14.5822 49.7398 13.6509 52.4194 13.0272Z" fill="#25ADE2"/>
<path d="M367.881 30.4487L368.034 30.5389C368.497 31.6356 368.189 87.1945 368.192 93.9322C363.351 93.7168 356.974 93.6993 352.111 93.8801L351.79 93.7619C351.274 91.7689 351.66 79.6931 351.664 76.7336L351.648 30.4828C356.04 30.5572 363.582 30.7494 367.881 30.4487Z" fill="#25ADE2"/>
<path d="M371.572 0.780756C371.682 0.708172 371.902 0.702426 372.044 0.6875L372.242 1.04199C372.44 16.4775 368.05 22.5843 352.447 23.6927C352.018 23.6452 352.136 23.7141 351.815 23.466C351.722 23.2104 351.638 22.8871 351.634 22.6092C351.55 17.6308 352.296 11.7295 355.53 7.83784C358.978 3.68933 366.472 1.11539 371.572 0.780756Z" fill="#25ADE2"/>
</svg>
