<svg width="400" height="100" viewBox="0 0 400 100" fill="none" xmlns="http://www.w3.org/2000/svg">
<path d="M98 29.5331V60.3331H92V29.5331H74.6666V24.0664H115.333V29.5331H98Z" fill="#231F20"/>
<path d="M159.2 60.3331L149.333 46.4664H130.933V60.3331H124.933V24.0664H153.6C161.2 24.0664 165.867 28.4664 165.867 35.5331C165.867 42.5997 161.867 45.3997 156.4 46.1997L166.133 60.3331H159.2ZM159.733 35.5331C159.733 31.5331 157.333 29.5331 152.267 29.5331H131.067V40.9997H152.8C157.333 40.9997 159.733 38.9997 159.733 35.3997V35.5331Z" fill="#231F20"/>
<path d="M178 60.3331V24.0664H184V60.3331H178Z" fill="#231F20"/>
<path d="M219.333 60.3331H212.4L192.8 24.0664H199.467L215.733 54.3331L232 24.0664H238.667L219.067 60.3331H219.333Z" fill="#231F20"/>
<path d="M247.733 60.3331V24.0664H253.733V60.3331H247.733Z" fill="#231F20"/>
<path d="M312 42.5997C312 47.6664 310 52.1997 306.133 55.5331C302.667 58.5997 297.867 60.3331 292.533 60.3331H268.4V24.0664H291.333C304 24.0664 311.867 31.3997 311.867 42.5997H312ZM305.467 42.4664C305.467 34.7331 300 29.5331 291.867 29.5331H274.4V54.8664H293.067C300.267 54.8664 305.467 49.6664 305.467 42.4664Z" fill="#231F20"/>
<path d="M324.4 60.3331V24.0664H330.4V60.3331H324.4Z" fill="#231F20"/>
<path d="M379.067 60.3331L374.8 52.1997H350.4L346.133 60.3331H339.6L358.8 24.0664H366.4L385.6 60.3331H379.067ZM362.667 29.1331L353.333 46.7331H371.867L362.667 29.1331Z" fill="#231F20"/>
<path d="M279.6 89.533V82.8663H267.467V89.533H264.933V74.4663H267.467V80.5996H279.6V74.4663H282.133V89.533H279.6Z" fill="#1B75BB"/>
<path d="M288.267 89.533V74.4663H303.467V76.733H290.667V80.5996H299.467V82.8663H290.667V87.2663H304V89.533H288.133H288.267Z" fill="#1B75BB"/>
<path d="M323.067 89.5335L321.333 86.2002H311.2L309.467 89.5335H306.667L314.667 74.3335H317.867L325.867 89.4002H323.2L323.067 89.5335ZM316.267 76.6002L312.4 83.9335H320.133L316.267 76.6002Z" fill="#1B75BB"/>
<path d="M329.733 89.533V74.4663H332.267V87.2663H344V89.533H329.867H329.733Z" fill="#1B75BB"/>
<path d="M355.6 76.733V89.533H353.067V76.733H345.867V74.4663H362.8V76.733H355.6Z" fill="#1B75BB"/>
<path d="M381.333 89.533V82.8663H369.2V89.533H366.667V74.4663H369.2V80.5996H381.333V74.4663H383.867V89.533H381.333Z" fill="#1B75BB"/>
<path d="M64 61.9335L49.6 37.0001L34.8 11.2668C34.5333 11.0001 34.2666 10.7335 34 10.4668C37.6 19.4001 38 28.3335 36.9333 36.3335C36 42.7335 34.1333 48.4668 32.1333 53.1335C39.3333 59.0001 49.3333 64.3335 62.6666 65.9335C64.1333 65.2668 64.8 63.4001 64 61.8001V61.9335Z" fill="#1B75BB"/>
<path d="M33.8666 10.5999C32.5332 9.93323 30.7999 10.3332 29.9999 11.6666L1.73323 60.9999L1.19989 62.0666C0.933228 62.4666 0.933228 62.7332 0.933228 63.1332C7.99989 52.8666 15.1999 46.3332 21.7332 42.3332C27.4666 38.8666 32.6666 37.1332 37.0666 36.4666C38.1332 28.4666 37.7332 19.6666 34.1332 10.5999H33.8666Z" fill="#626366"/>
<path d="M32.1334 53.2668C27.4667 49.5335 24 45.5335 21.6 42.3335C15.0667 46.3335 7.86669 52.8668 0.800019 63.2668C0.666686 64.8668 1.86669 66.3335 3.60002 66.4668C3.60002 66.4668 13.4667 66.4668 25.0667 66.4668H61.4667C61.8667 66.4668 62.4 66.4668 62.8 66.3335C49.4667 64.7335 39.4667 59.4002 32.2667 53.5335L32.1334 53.2668Z" fill="#231F20"/>
<path d="M396.667 84.4668C398.133 84.4668 399.333 85.6668 399.333 87.1335C399.333 88.6001 398.133 89.8001 396.667 89.8001C395.2 89.8001 394 88.6001 394 87.1335C394 85.6668 395.2 84.4668 396.667 84.4668ZM396.533 85.0001C395.333 85.0001 394.533 85.9335 394.533 87.1335C394.533 88.3335 395.467 89.2668 396.533 89.2668C397.733 89.2668 398.533 88.3335 398.533 87.1335C398.533 85.9335 397.733 85.0001 396.533 85.0001ZM396.133 88.4668H395.467V85.8001C395.733 85.8001 396 85.8001 396.533 85.8001C397.067 85.8001 397.2 85.8001 397.467 86.0668C397.6 86.0668 397.733 86.3335 397.733 86.6001C397.733 86.8668 397.467 87.1335 397.2 87.2668C397.467 87.2668 397.6 87.5335 397.6 87.9335C397.6 88.3335 397.733 88.4668 397.733 88.6001H397.067C397.067 88.6001 397.067 88.3335 396.8 87.9335C396.8 87.6668 396.533 87.5335 396.267 87.5335H396V88.6001L396.133 88.4668ZM396.267 87.0001H396.533C396.933 87.0001 397.2 87.0001 397.2 86.6001C397.2 86.2001 397.067 86.2001 396.667 86.2001C396.267 86.2001 396.4 86.2001 396.267 86.2001V87.0001Z" fill="#1B75BB"/>
</svg>
