<svg width="400" height="100" viewBox="0 0 400 100" fill="none" xmlns="http://www.w3.org/2000/svg">
<g clip-path="url(#clip0_18_602)">
<path d="M327.834 24.4678C330.013 24.4678 331.949 24.6299 333.723 24.9519C335.498 25.274 337.113 25.6764 338.645 26.2401C340.179 26.8039 341.549 27.5292 342.921 28.3345C344.292 29.1399 345.585 30.1056 346.874 31.2331L341.389 37.8384C340.421 37.0331 339.453 36.3072 338.485 35.6629C337.517 35.0186 336.466 34.4549 335.336 33.9716C334.287 33.4884 333.077 33.166 331.785 32.9244C330.496 32.6829 329.043 32.5213 327.511 32.5213C325.251 32.5214 323.153 33.0052 321.217 33.9716C319.281 34.938 317.587 36.1467 316.134 37.7573C314.681 39.3682 313.551 41.2213 312.745 43.3154C311.938 45.4094 311.534 47.6642 311.534 49.9997V50.1618C311.534 52.7386 311.938 55.0748 312.745 57.2491C313.551 59.4233 314.681 61.275 316.134 62.8052C317.587 64.3354 319.362 65.6239 321.46 66.5099C323.477 67.3959 325.817 67.879 328.319 67.879C330.657 67.879 332.836 67.5586 334.934 66.8339C336.951 66.1091 338.726 65.2229 340.26 64.0954V54.8327H327.591V47.2612H348.651V68.0412C347.44 69.0882 346.068 70.0544 344.617 71.0208C343.164 71.9871 341.551 72.7933 339.774 73.5182C338.081 74.2431 336.223 74.8069 334.206 75.2095C332.108 75.3705 330.013 75.5316 327.834 75.5316C323.962 75.5316 320.409 74.888 317.262 73.5993C314.115 72.3108 311.372 70.5386 309.194 68.2033C306.934 65.948 305.24 63.2082 304.032 60.1476C302.821 57.0871 302.174 53.7048 302.174 50.0808V49.9997C302.174 46.5365 302.821 43.3149 304.032 40.1738C305.321 37.0327 307.017 34.375 309.355 32.0392C311.615 29.7035 314.36 27.8504 317.506 26.4812C320.653 25.112 324.043 24.4678 327.834 24.4678ZM378.747 24.7898C382.377 24.7898 385.604 25.3532 388.511 26.4001C391.415 27.4471 394.157 28.9786 396.66 30.9921L391.979 37.5953C389.721 35.9847 387.462 34.6975 385.283 33.8116C383.104 32.9257 380.845 32.5214 378.587 32.5213C376.004 32.5213 374.066 33.0852 372.615 34.2126C371.162 35.3402 370.517 36.7102 370.517 38.4015V38.5635C370.517 39.5293 370.679 40.3345 371 41.0589C371.323 41.7838 371.97 42.428 372.777 43.0723C373.664 43.636 374.874 44.2 376.406 44.7636C377.94 45.2469 379.877 45.8122 382.298 46.3761C384.879 47.0203 387.219 47.7439 389.236 48.5495C391.253 49.3548 392.947 50.3225 394.238 51.4499C395.53 52.5776 396.579 53.9465 397.223 55.4767C397.951 57.0069 398.272 58.7784 398.272 60.7918V60.9537C398.272 63.2895 397.87 65.3037 396.983 67.1561C396.096 69.0084 394.885 70.5382 393.351 71.8269C391.819 73.1152 389.962 74.0812 387.785 74.7254C385.687 75.0476 383.347 75.4505 380.764 75.4505C376.972 75.4505 373.26 74.8067 369.792 73.5182C366.321 72.2295 363.094 70.215 360.109 67.5571L365.353 61.3569C367.772 63.4508 370.194 64.9812 372.615 66.1088C375.036 67.2363 377.86 67.8001 380.926 67.8001C383.589 67.8001 385.768 67.2363 387.3 66.1088C388.834 64.9812 389.64 63.4503 389.64 61.598V61.4359C389.64 60.5503 389.479 59.7446 389.155 59.1003C388.834 58.4561 388.268 57.7318 387.46 57.168C386.653 56.5239 385.523 55.9599 384.072 55.4767C382.619 54.9935 380.764 54.4286 378.423 53.9454C375.762 53.3012 373.421 52.6584 371.404 51.8531C369.387 51.0478 367.611 50.161 366.24 49.0335C364.868 47.9061 363.819 46.5367 363.013 45.0068C362.287 43.3961 361.883 41.4626 361.883 39.2076V39.0456C361.883 36.9516 362.285 35.0183 363.172 33.2465C363.981 31.4745 365.191 29.9437 366.643 28.7356C368.096 27.5276 369.87 26.4814 371.968 25.837C374.066 25.1122 376.326 24.7899 378.747 24.7898ZM52.9317 61.922L64.7109 25.276H73.8281L56.5617 75.0495H49.0587L36.9555 39.5318L24.7715 75.0495H17.2664L0 25.276H9.44149L21.2205 61.922L33.4047 25.114H40.7477L52.9317 61.922ZM95.4538 74.7276H86.8206V25.276H95.4538V74.7276ZM148.868 33.3296H133.216V74.7276H124.42V33.3296H108.685V25.276H148.868V33.3296ZM170.25 45.8129H194.053V25.276H202.687V74.7276H194.053V53.8686H170.25V74.7276H161.617V25.276H170.25V45.8129ZM228.104 74.7276H219.47V25.276H228.104V74.7276ZM279.421 59.4246V25.276H288.055V74.7276H280.794L253.519 39.5318V74.7276H244.887V25.276H252.955L279.421 59.4246Z" fill="#2D333D"/>
</g>
<defs>
<clipPath id="clip0_18_602">
<rect width="400" height="51.0638" fill="white" transform="translate(0 24.4678)"/>
</clipPath>
</defs>
</svg>
