<svg width="400" height="100" viewBox="0 0 400 100" fill="none" xmlns="http://www.w3.org/2000/svg">
<g clip-path="url(#clip0_18_631)">
<mask id="mask0_18_631" style="mask-type:luminance" maskUnits="userSpaceOnUse" x="0" y="12" width="400" height="76">
<path d="M399.767 12.0342H0V87.9664H399.767V12.0342Z" fill="white"/>
</mask>
<g mask="url(#mask0_18_631)">
<path d="M8.64617 25.986C12.8223 30.5798 16.9226 35.0787 21.0134 39.587C22.7977 41.5517 24.5252 43.5639 26.3855 45.4526C27.2301 46.3069 27.325 46.7909 26.4424 47.7401C22.9306 51.4796 19.5422 55.3332 16.0494 59.1012C15.1951 60.0313 15.0907 60.6198 16.1917 61.4456C17.587 62.4991 18.8494 63.7139 20.1307 64.9098C20.6053 65.3559 20.8331 65.3559 21.298 64.8434C26.5848 58.9778 31.8999 53.1311 37.2435 47.3225C37.9839 46.5157 37.4523 46.1645 36.9967 45.6804C31.9664 40.2704 26.936 34.8509 21.9055 29.4408C19.4853 26.8401 17.1029 24.1921 14.6258 21.658C13.8 20.8132 14.1037 20.4526 14.8536 19.8831C20.4819 15.631 26.7746 13.1253 33.7506 12.29C50.5788 10.2779 67.3215 20.3102 73.2725 36.2081C78.1605 49.2682 76.3572 61.512 68.2896 72.8731C67.4544 74.05 67.0368 73.9741 66.1161 72.949C60.6396 66.7987 55.1062 60.6957 49.5348 54.6213C48.7185 53.7291 48.6331 53.245 49.4968 52.3149C53.037 48.5184 56.4729 44.6269 59.9942 40.8114C60.706 40.0331 60.8769 39.549 59.9372 38.8372C58.9501 38.0875 58.1054 37.1668 57.1848 36.3315C55.9192 35.1672 54.6822 35.24 53.4736 36.5498C48.6426 41.8365 43.84 47.1611 38.952 52.4003C38.0978 53.3115 38.2971 53.7386 39.0279 54.5359C46.2982 62.4137 53.4926 70.3578 60.8104 78.1882C61.9209 79.3747 61.5508 79.8018 60.5257 80.5706C43.3654 93.3553 18.5077 89.1127 6.55809 71.3355C-2.5251 57.8293 -2.14545 40.3748 7.5262 27.3527C7.8584 26.9066 8.22856 26.489 8.64617 25.986Z" fill="#0A0A1E"/>
<path d="M182.759 43.9172H177.976V56.084H182.759C187.018 56.084 188.898 52.9721 188.843 49.8969C188.788 46.8888 186.933 43.9172 182.759 43.9172ZM182.759 53.8752H180.258V46.0894H182.759C185.402 46.0894 186.513 47.9871 186.567 49.8786C186.622 51.8616 185.524 53.8752 182.759 53.8752ZM163.307 51.4589L157.346 43.9172H155.485V56.084H157.779V47.8772L164.174 56.1023V56.084H165.601V43.8989H163.307V51.4589ZM119.766 44.021V43.9172H117.246L114.201 48.4569L111.156 43.9172H108.636V44.021L112.737 49.9335L108.514 56.0169V56.084H111.089L114.201 51.5138L117.313 56.084H119.888V56.0169L115.647 49.9335L119.766 44.021ZM135.881 43.9172L130.419 56.084H132.903L133.946 53.7898H140.31L141.336 56.084H143.837L138.376 43.9172H135.874H135.881ZM134.874 51.6542L137.131 46.4738L139.388 51.6542H134.868H134.874ZM204.994 43.9172L199.534 56.084H202.016L203.06 53.7898H209.424L210.449 56.084H212.95L207.49 43.9172H204.988H204.994ZM203.988 51.6542L206.245 46.4738L208.503 51.6542H203.981H203.988ZM350.971 56.084H353.247V43.9172H350.971V56.084ZM332.739 43.9172H327.962V56.084H332.739C336.998 56.084 338.877 52.9721 338.823 49.8969C338.767 46.8888 336.913 43.9172 332.739 43.9172ZM332.739 53.8752H330.237V46.0894H332.739C335.382 46.0894 336.492 47.9871 336.546 49.8786C336.602 51.8616 335.504 53.8752 332.739 53.8752ZM370.039 43.9172L364.578 56.084H367.062L368.104 53.7898H374.469L375.494 56.084H377.996L372.534 43.9172H370.033H370.039ZM369.032 51.6542L371.289 46.4738L373.547 51.6542H369.026H369.032ZM397.472 43.8989V51.4589L391.511 43.9172H389.65V56.084H391.944V47.8772L398.339 56.1023V56.084H399.767V43.8989H397.472ZM286.537 43.9172L281.077 56.084H283.559L284.603 53.7898H290.967L291.992 56.084H294.494L289.033 43.9172H286.532H286.537ZM285.531 51.6542L287.788 46.4738L290.046 51.6542H285.524H285.531ZM270.289 43.9905V43.9233H267.439L262.814 49.0671V43.9233H260.519V56.0901H262.814V50.7023L267.909 56.0901H270.74V55.9498L264.883 49.8115L270.289 43.9905ZM234.606 47.9566C234.606 45.8515 233.093 43.9416 230.225 43.9233C228.297 43.9233 226.369 43.905 224.434 43.905V56.0901H226.728V52.0203H228.937L232.483 56.0901H235.209V55.9315L231.524 51.7762C233.837 51.3064 234.599 49.6223 234.599 47.9505L234.606 47.9566ZM226.728 49.9579V46.065H230.225C231.665 46.065 232.312 47.0413 232.312 48.0115C232.312 48.9816 231.683 49.9579 230.225 49.9579H226.728ZM316.142 47.9566C316.142 45.8515 314.629 43.9416 311.761 43.9233C309.833 43.9233 307.905 43.905 305.972 43.905V56.0901H308.266V52.0203H310.475L314.019 56.0901H316.747V55.9315L313.062 51.7762C315.374 51.3064 316.137 49.6223 316.137 47.9505L316.142 47.9566ZM308.266 49.9579V46.065H311.761C313.201 46.065 313.848 47.0413 313.848 48.0115C313.848 48.9816 313.22 49.9579 311.761 49.9579H308.266Z" fill="#0A0A1E"/>
</g>
</g>
<defs>
<clipPath id="clip0_18_631">
<rect width="400" height="75.9322" fill="white" transform="translate(0 12.0342)"/>
</clipPath>
</defs>
</svg>
